<svg width="290" height="376" viewBox="0 0 290 376" fill="none" xmlns="http://www.w3.org/2000/svg">
<g opacity="0.15">
<path d="M270.573 13.1441C264.38 23.3149 267.605 36.5794 277.775 42.7724C287.946 48.9653 301.21 45.7411 307.403 35.5703C313.596 25.3997 310.372 12.1349 300.201 5.94203C290.031 -0.250881 276.766 2.97353 270.573 13.1441Z" fill="#BECADB"/>
<path d="M274.347 172.77C269.584 180.592 272.064 190.797 279.888 195.561C287.711 200.324 297.916 197.843 302.678 190.021C307.441 182.198 304.962 171.993 297.138 167.23C289.315 162.466 279.11 164.947 274.347 172.77Z" fill="#BECADB"/>
<path d="M174.81 170.414C170.047 178.236 172.527 188.441 180.35 193.205C188.174 197.969 198.378 195.487 203.141 187.665C207.904 179.843 205.424 169.638 197.601 164.874C189.778 160.11 179.573 162.592 174.81 170.414Z" fill="#BECADB"/>
<path d="M221.879 105.87C218.068 112.128 220.052 120.291 226.311 124.102C232.57 127.913 240.733 125.929 244.544 119.67C248.354 113.412 246.37 105.248 240.112 101.437C233.853 97.6266 225.69 99.6112 221.879 105.87Z" fill="#BECADB"/>
<path d="M216.564 223.022C212.753 229.281 214.737 237.444 220.996 241.255C227.254 245.066 235.418 243.081 239.228 236.823C243.039 230.565 241.055 222.401 234.796 218.59C228.538 214.779 220.374 216.764 216.564 223.022Z" fill="#BECADB"/>
<path d="M121.639 -3.75593C113.541 9.54264 117.757 26.8904 131.057 34.9887C144.357 43.087 161.704 38.8692 169.802 25.5706C177.899 12.2721 173.683 -5.07573 160.384 -13.174C147.084 -21.2723 129.737 -17.0545 121.639 -3.75593Z" fill="#BECADB"/>
<path d="M174.671 279.067C170.86 285.326 172.844 293.489 179.103 297.3C185.361 301.111 193.525 299.126 197.335 292.868C201.146 286.61 199.162 278.446 192.903 274.635C186.645 270.824 178.481 272.809 174.671 279.067Z" fill="#BECADB"/>
<path d="M265.084 328.296C257.939 340.03 261.659 355.337 273.394 362.482C285.129 369.628 300.436 365.907 307.581 354.172C314.726 342.437 311.006 327.131 299.271 319.986C287.536 312.84 272.23 316.561 265.084 328.296Z" fill="#BECADB"/>
<line x1="289.184" y1="22.0842" x2="286.549" y2="338.928" stroke="#BECADB" stroke-width="1.5"/>
<line x1="288.364" y1="22.8247" x2="145.096" y2="9.37497" stroke="#BECADB" stroke-width="1.5"/>
<line x1="188.249" y1="179.226" x2="144.42" y2="8.84808" stroke="#BECADB" stroke-width="1.5"/>
<line x1="231.538" y1="108.705" x2="144.581" y2="9.15448" stroke="#BECADB" stroke-width="1.5"/>
<line x1="289.068" y1="22.4794" x2="189.63" y2="179.408" stroke="#BECADB" stroke-width="1.5"/>
<line x1="285.427" y1="339.617" x2="185.651" y2="286.63" stroke="#BECADB" stroke-width="1.5"/>
<line x1="228.497" y1="230.372" x2="186.604" y2="286.417" stroke="#BECADB" stroke-width="1.5"/>
<line x1="288.495" y1="182.145" x2="188.958" y2="179.789" stroke="#BECADB" stroke-width="1.5"/>
<line x1="287.929" y1="181.866" x2="232.627" y2="113.241" stroke="#BECADB" stroke-width="1.5"/>
</g>
</svg>
