<svg width="813" height="800" viewBox="0 0 813 800" fill="none" xmlns="http://www.w3.org/2000/svg">
<path d="M0.500031 0H686L697.5 55L719.5 222.5L715.5 263L693.5 308.5V331.5L777.5 560.5L775 598.5L691.5 687.5L690 716L747 800H0.500031V0Z" fill="#E6EAF0"/>
<g clip-path="url(#clip0_39_3749)">
<path d="M600.937 341.911C600.937 341.911 522.567 151.06 379.295 114.201C236.024 77.3413 175.936 190.047 153.98 268.204C132.024 346.373 51.1181 449.848 58.4654 520.927C65.4453 588.484 124.75 620.429 180.136 634.146C250.535 651.567 330.534 652.888 401.19 638.364C418.003 634.904 434.498 630.271 450.87 624.94C484.067 614.133 516.652 605.759 550.29 596.797C614.26 579.755 639.608 511.159 632.396 445.521C628.33 408.588 614.775 375.53 600.95 341.911H600.937Z" fill="#24548C"/>
<path opacity="0.7" d="M600.937 341.911C600.937 341.911 522.567 151.06 379.295 114.201C236.024 77.3413 175.936 190.047 153.98 268.204C132.024 346.373 51.1181 449.848 58.4654 520.927C65.4453 588.484 124.75 620.429 180.136 634.146C250.535 651.567 330.534 652.888 401.19 638.364C418.003 634.904 434.498 630.271 450.87 624.94C484.067 614.133 516.652 605.759 550.29 596.797C614.26 579.755 639.608 511.159 632.396 445.521C628.33 408.588 614.775 375.53 600.95 341.911H600.937Z" fill="#E6EAF0"/>
<path d="M557.784 132.93H330.632V446.927H557.784V132.93Z" stroke="#042954" stroke-linecap="round" stroke-linejoin="round"/>
<path d="M444.208 133.113V448.027" stroke="#042954" stroke-linecap="round" stroke-linejoin="round"/>
<path d="M557.968 290.576H330.436" stroke="#042954" stroke-linecap="round" stroke-linejoin="round"/>
<path d="M557.968 211.723H330.436" stroke="#042954" stroke-linecap="round" stroke-linejoin="round"/>
<path d="M557.968 369.43H330.436" stroke="#042954" stroke-linecap="round" stroke-linejoin="round"/>
<path d="M516.566 248.118L494.427 269.365" stroke="#042954" stroke-linecap="round" stroke-linejoin="round"/>
<path d="M549.494 216.503L523.044 241.895" stroke="#042954" stroke-linecap="round" stroke-linejoin="round"/>
<path d="M492.822 259.243L485.794 265.991" stroke="#042954" stroke-linecap="round" stroke-linejoin="round"/>
<path d="M523.02 230.244L497.672 254.585" stroke="#042954" stroke-linecap="round" stroke-linejoin="round"/>
<path d="M393.72 176.22L371.581 197.468" stroke="#042954" stroke-linecap="round" stroke-linejoin="round"/>
<path d="M426.648 144.605L400.198 170.01" stroke="#042954" stroke-linecap="round" stroke-linejoin="round"/>
<path d="M369.976 187.345L362.948 194.094" stroke="#042954" stroke-linecap="round" stroke-linejoin="round"/>
<path d="M400.174 158.359L374.826 182.687" stroke="#042954" stroke-linecap="round" stroke-linejoin="round"/>
<path d="M511.276 331.641L489.137 352.889" stroke="#042954" stroke-linecap="round" stroke-linejoin="round"/>
<path d="M544.204 300.026L517.754 325.431" stroke="#042954" stroke-linecap="round" stroke-linejoin="round"/>
<path d="M487.532 342.766L480.504 349.515" stroke="#042954" stroke-linecap="round" stroke-linejoin="round"/>
<path d="M517.73 313.78L492.369 338.108" stroke="#042954" stroke-linecap="round" stroke-linejoin="round"/>
<path d="M521.256 417.341L520.301 409.175C520.301 409.175 515.954 409.431 514.276 405.654C513.26 403.368 512.231 398.734 513.725 396.448C515.758 393.343 520.252 393.758 521.55 397.487C522.714 400.812 523.277 402.231 523.277 402.231C522.995 397.426 519.371 378.073 530.281 381.02C534.714 382.218 535.926 386.497 536.122 389.871C536.318 393.245 535.853 401.986 535.853 401.986C535.853 401.986 538.78 402.304 538.988 397.451C539.196 392.597 543.91 390.396 545.98 392.695C548.049 394.993 549.017 403.16 546.739 405.715C544.461 408.27 537.249 409.162 537.249 409.162L537.726 417.366H521.244L521.256 417.341Z" fill="#24548C" stroke="#042954" stroke-linecap="round" stroke-linejoin="round"/>
<path d="M527.526 382.352C527.526 382.352 525.726 383.99 526.216 389.553C526.706 395.115 526.706 405.104 526.706 405.104" stroke="#042954" stroke-width="0.5" stroke-linecap="round" stroke-linejoin="round"/>
<path d="M532.289 386.118C532.289 386.118 534.42 385.787 533.771 390.861C533.11 395.935 533.771 403.637 533.771 403.637" stroke="#042954" stroke-width="0.5" stroke-linecap="round" stroke-linejoin="round"/>
<path d="M516.872 396.925C516.872 396.925 514.742 397.414 515.721 400.849C516.701 404.284 517.032 406.913 519.334 407.402C521.636 407.891 522.444 407.891 522.444 407.891L522.775 411.497" stroke="#042954" stroke-width="0.5" stroke-linecap="round" stroke-linejoin="round"/>
<path d="M537.543 407.243C537.543 407.243 544.265 407.402 545.576 404.627C546.886 401.839 546.066 397.096 546.066 397.096" stroke="#042954" stroke-width="0.5" stroke-linecap="round" stroke-linejoin="round"/>
<path d="M519.664 397.829C519.664 398.147 519.407 398.404 519.089 398.404C518.771 398.404 518.513 398.147 518.513 397.829C518.513 397.512 518.771 397.255 519.089 397.255C519.407 397.255 519.664 397.512 519.664 397.829Z" stroke="#042954" stroke-width="0.5" stroke-linecap="round" stroke-linejoin="round"/>
<path d="M521.048 405.03C521.366 405.03 521.624 404.773 521.624 404.456C521.624 404.138 521.366 403.881 521.048 403.881C520.73 403.881 520.473 404.138 520.473 404.456C520.473 404.773 520.73 405.03 521.048 405.03Z" stroke="#042954" stroke-width="0.5" stroke-linecap="round" stroke-linejoin="round"/>
<path d="M518.183 402.328C518.501 402.328 518.758 402.071 518.758 401.754C518.758 401.436 518.501 401.179 518.183 401.179C517.865 401.179 517.607 401.436 517.607 401.754C517.607 402.071 517.865 402.328 518.183 402.328Z" stroke="#042954" stroke-width="0.5" stroke-linecap="round" stroke-linejoin="round"/>
<path d="M529.828 395.543C530.146 395.543 530.404 395.286 530.404 394.969C530.404 394.651 530.146 394.394 529.828 394.394C529.51 394.394 529.253 394.651 529.253 394.969C529.253 395.286 529.51 395.543 529.828 395.543Z" stroke="#042954" stroke-width="0.5" stroke-linecap="round" stroke-linejoin="round"/>
<path d="M524.416 389.969C524.734 389.969 524.991 389.711 524.991 389.394C524.991 389.077 524.734 388.819 524.416 388.819C524.098 388.819 523.84 389.077 523.84 389.394C523.84 389.711 524.098 389.969 524.416 389.969Z" stroke="#042954" stroke-width="0.5" stroke-linecap="round" stroke-linejoin="round"/>
<path d="M532.289 409.37C532.289 409.688 532.032 409.945 531.714 409.945C531.396 409.945 531.138 409.688 531.138 409.37C531.138 409.052 531.396 408.796 531.714 408.796C532.032 408.796 532.289 409.052 532.289 409.37Z" stroke="#042954" stroke-width="0.5" stroke-linecap="round" stroke-linejoin="round"/>
<path d="M526.057 408.551C526.057 408.869 525.799 409.126 525.481 409.126C525.163 409.126 524.905 408.869 524.905 408.551C524.905 408.233 525.163 407.977 525.481 407.977C525.799 407.977 526.057 408.233 526.057 408.551Z" stroke="#042954" stroke-width="0.5" stroke-linecap="round" stroke-linejoin="round"/>
<path d="M530.808 384.736C531.126 384.736 531.383 384.479 531.383 384.162C531.383 383.844 531.126 383.587 530.808 383.587C530.49 383.587 530.232 383.844 530.232 384.162C530.232 384.479 530.49 384.736 530.808 384.736Z" stroke="#042954" stroke-width="0.5" stroke-linecap="round" stroke-linejoin="round"/>
<path d="M543.029 395.042C543.029 395.36 542.772 395.617 542.453 395.617C542.135 395.617 541.878 395.36 541.878 395.042C541.878 394.724 542.135 394.467 542.453 394.467C542.772 394.467 543.029 394.724 543.029 395.042Z" stroke="#042954" stroke-width="0.5" stroke-linecap="round" stroke-linejoin="round"/>
<path d="M540.984 403.404C541.302 403.404 541.559 403.147 541.559 402.83C541.559 402.512 541.302 402.255 540.984 402.255C540.666 402.255 540.408 402.512 540.408 402.83C540.408 403.147 540.666 403.404 540.984 403.404Z" stroke="#042954" stroke-width="0.5" stroke-linecap="round" stroke-linejoin="round"/>
<path d="M530.808 403.233C531.126 403.233 531.383 402.976 531.383 402.658C531.383 402.341 531.126 402.084 530.808 402.084C530.49 402.084 530.232 402.341 530.232 402.658C530.232 402.976 530.49 403.233 530.808 403.233Z" stroke="#042954" stroke-width="0.5" stroke-linecap="round" stroke-linejoin="round"/>
<path d="M543.886 412.048H514.362L517.313 436.205H540.935L543.886 412.048Z" fill="#E6EAF0" stroke="#042954" stroke-linecap="round" stroke-linejoin="round"/>
<path d="M104.569 367.511L127.162 583.57" stroke="#042954" stroke-width="2" stroke-miterlimit="10"/>
<path d="M123.525 542.223L113.288 531.428" stroke="#042954" stroke-width="2" stroke-miterlimit="10"/>
<path d="M116.398 534.656C116.398 534.656 116.692 529.876 112.321 525.988C109.688 523.641 95.8628 517.834 94.5526 522.699C93.1198 527.993 107.288 538.372 116.398 534.656Z" fill="#24548C" stroke="#042954" stroke-miterlimit="10"/>
<path d="M116.398 534.656L103.222 526.465" stroke="#042954" stroke-width="0.5" stroke-miterlimit="10"/>
<path d="M126.085 566.796L115.847 556.001" stroke="#042954" stroke-width="2" stroke-miterlimit="10"/>
<path d="M118.958 559.229C118.958 559.229 119.252 554.449 114.88 550.561C112.247 548.214 98.4221 542.407 97.1119 547.272C95.6791 552.566 109.847 562.945 118.958 559.229Z" fill="#24548C" stroke="#042954" stroke-miterlimit="10"/>
<path d="M118.958 559.229L105.794 551.038" stroke="#042954" stroke-width="0.5" stroke-miterlimit="10"/>
<path d="M117.256 482.258L107.018 471.463" stroke="#042954" stroke-width="2" stroke-miterlimit="10"/>
<path d="M110.129 474.703C110.129 474.703 110.423 469.923 106.051 466.035C103.418 463.688 89.5932 457.881 88.2829 462.746C86.8502 468.04 101.018 478.419 110.129 474.703Z" fill="#24548C" stroke="#042954" stroke-miterlimit="10"/>
<path d="M110.129 474.703L96.9527 466.512" stroke="#042954" stroke-width="0.5" stroke-miterlimit="10"/>
<path d="M119.827 506.831L109.578 496.036" stroke="#042954" stroke-width="2" stroke-miterlimit="10"/>
<path d="M112.688 499.276C112.688 499.276 112.982 494.496 108.61 490.608C105.978 488.261 92.1525 482.454 90.8422 487.319C89.4095 492.613 103.577 502.992 112.688 499.276Z" fill="#24548C" stroke="#042954" stroke-miterlimit="10"/>
<path d="M112.688 499.276L99.5242 491.085" stroke="#042954" stroke-width="0.5" stroke-miterlimit="10"/>
<path d="M113.08 442.342L102.843 431.547" stroke="#042954" stroke-width="2" stroke-miterlimit="10"/>
<path d="M105.953 434.787C105.953 434.787 106.247 430.007 101.875 426.119C99.2426 423.772 85.4175 417.965 84.1072 422.83C82.6745 428.124 96.8425 438.503 105.953 434.787Z" fill="#24548C" stroke="#042954" stroke-miterlimit="10"/>
<path d="M105.953 434.787L92.7892 426.596" stroke="#042954" stroke-width="0.5" stroke-miterlimit="10"/>
<path d="M108.892 402.255L98.6548 391.46" stroke="#042954" stroke-width="2" stroke-miterlimit="10"/>
<path d="M101.765 394.688C101.765 394.688 102.059 389.907 97.6874 386.02C95.0546 383.672 81.2296 377.865 79.9193 382.731C78.4866 388.025 92.6545 398.404 101.765 394.688Z" fill="#24548C" stroke="#042954" stroke-miterlimit="10"/>
<path d="M101.765 394.688L88.5891 386.497" stroke="#042954" stroke-width="0.5" stroke-miterlimit="10"/>
<path d="M121.799 527.687L129.587 515.01" stroke="#042954" stroke-width="2" stroke-miterlimit="10"/>
<path d="M127.211 518.812C127.211 518.812 125.938 514.203 129.403 509.484C131.485 506.648 143.828 498.114 146.118 502.601C148.604 507.479 136.909 520.56 127.211 518.812Z" fill="#24548C" stroke="#042954" stroke-miterlimit="10"/>
<path d="M127.211 518.812L139.065 507.503" stroke="#042954" stroke-width="0.5" stroke-miterlimit="10"/>
<path d="M115.039 463.015L122.827 450.35" stroke="#042954" stroke-width="2" stroke-miterlimit="10"/>
<path d="M120.452 454.152C120.452 454.152 119.178 449.543 122.644 444.824C124.725 441.987 137.069 433.454 139.359 437.941C141.844 442.819 130.15 455.9 120.452 454.152Z" fill="#24548C" stroke="#042954" stroke-miterlimit="10"/>
<path d="M120.452 454.152L132.305 442.843" stroke="#042954" stroke-width="0.5" stroke-miterlimit="10"/>
<path d="M112.076 434.603L119.852 421.926" stroke="#042954" stroke-width="2" stroke-miterlimit="10"/>
<path d="M117.476 425.74C117.476 425.74 116.202 421.131 119.668 416.412C121.75 413.576 134.093 405.042 136.383 409.529C138.869 414.407 127.174 427.488 117.476 425.74Z" fill="#24548C" stroke="#042954" stroke-miterlimit="10"/>
<path d="M117.476 425.74L129.342 414.419" stroke="#042954" stroke-width="0.5" stroke-miterlimit="10"/>
<path d="M107.716 392.939L115.504 380.274" stroke="#042954" stroke-width="2" stroke-miterlimit="10"/>
<path d="M113.129 384.076C113.129 384.076 111.855 379.467 115.321 374.748C117.403 371.912 129.746 363.378 132.036 367.865C134.522 372.743 122.827 385.824 113.129 384.076Z" fill="#24548C" stroke="#042954" stroke-miterlimit="10"/>
<path d="M113.129 384.076L124.982 372.755" stroke="#042954" stroke-width="0.5" stroke-miterlimit="10"/>
<path d="M104.386 366.312C104.386 366.312 103.112 361.703 106.578 356.984C108.659 354.148 121.003 345.615 123.293 350.102C125.778 354.98 114.084 368.061 104.386 366.312Z" fill="#24548C" stroke="#042954" stroke-miterlimit="10"/>
<path d="M104.386 366.312L116.239 354.992" stroke="#042954" stroke-width="0.5" stroke-miterlimit="10"/>
<path d="M105.071 366.801C105.071 366.801 100.345 367.584 96.0098 363.647C93.4015 361.276 86.2012 348.133 90.9034 346.336C96.022 344.38 107.827 357.363 105.059 366.801H105.071Z" fill="#24548C" stroke="#042954" stroke-miterlimit="10"/>
<path d="M105.071 366.801L95.0424 353.843" stroke="#042954" stroke-width="0.5" stroke-miterlimit="10"/>
<path d="M164.143 397.267L141.685 613.338" stroke="#042954" stroke-width="2" stroke-miterlimit="10"/>
<path d="M146.657 572.127L138.856 559.461" stroke="#042954" stroke-width="2" stroke-miterlimit="10"/>
<path d="M141.232 563.263C141.232 563.263 142.506 558.654 139.028 553.935C136.934 551.099 124.603 542.578 122.313 547.065C119.827 551.943 131.534 565.024 141.22 563.263H141.232Z" fill="#24548C" stroke="#042954" stroke-miterlimit="10"/>
<path d="M141.232 563.263L130.04 552.542" stroke="#042954" stroke-width="0.5" stroke-miterlimit="10"/>
<path d="M152.89 512.161L145.089 499.496" stroke="#042954" stroke-width="2" stroke-miterlimit="10"/>
<path d="M147.465 503.298C147.465 503.298 148.739 498.689 145.261 493.97C143.167 491.134 130.836 482.612 128.546 487.099C126.06 491.977 137.767 505.058 147.453 503.298H147.465Z" fill="#24548C" stroke="#042954" stroke-miterlimit="10"/>
<path d="M147.465 503.298L136.273 492.576" stroke="#042954" stroke-width="0.5" stroke-miterlimit="10"/>
<path d="M150.33 536.734L142.542 524.069" stroke="#042954" stroke-width="2" stroke-miterlimit="10"/>
<path d="M144.918 527.871C144.918 527.871 146.191 523.262 142.714 518.543C140.62 515.707 128.289 507.185 125.999 511.672C123.513 516.55 135.22 529.631 144.906 527.871H144.918Z" fill="#24548C" stroke="#042954" stroke-miterlimit="10"/>
<path d="M144.918 527.871L133.726 517.149" stroke="#042954" stroke-width="0.5" stroke-miterlimit="10"/>
<path d="M157.041 472.245L149.241 459.58" stroke="#042954" stroke-width="2" stroke-miterlimit="10"/>
<path d="M151.616 463.382C151.616 463.382 152.89 458.773 149.412 454.054C147.318 451.218 134.987 442.697 132.697 447.183C130.211 452.061 141.918 465.142 151.604 463.382H151.616Z" fill="#24548C" stroke="#042954" stroke-miterlimit="10"/>
<path d="M151.616 463.382L140.424 452.66" stroke="#042954" stroke-width="0.5" stroke-miterlimit="10"/>
<path d="M161.204 432.146L153.404 419.481" stroke="#042954" stroke-width="2" stroke-miterlimit="10"/>
<path d="M155.792 423.283C155.792 423.283 157.065 418.674 153.588 413.955C151.494 411.118 139.163 402.597 136.873 407.084C134.387 411.962 146.094 425.043 155.78 423.283H155.792Z" fill="#24548C" stroke="#042954" stroke-miterlimit="10"/>
<path d="M155.792 423.283L144.587 412.561" stroke="#042954" stroke-width="0.5" stroke-miterlimit="10"/>
<path d="M147.967 557.542L158.204 546.747" stroke="#042954" stroke-width="2" stroke-miterlimit="10"/>
<path d="M155.094 549.987C155.094 549.987 154.8 545.206 159.159 541.319C161.792 538.971 175.617 533.152 176.927 538.018C178.36 543.311 164.204 553.703 155.082 549.987H155.094Z" fill="#24548C" stroke="#042954" stroke-miterlimit="10"/>
<path d="M155.094 549.986L169.029 541.343" stroke="#042954" stroke-width="0.5" stroke-miterlimit="10"/>
<path d="M154.69 492.882L164.927 482.075" stroke="#042954" stroke-width="2" stroke-miterlimit="10"/>
<path d="M161.817 485.314C161.817 485.314 161.523 480.534 165.882 476.646C168.515 474.299 182.34 468.48 183.65 473.346C185.083 478.639 170.927 489.031 161.804 485.314H161.817Z" fill="#24548C" stroke="#042954" stroke-miterlimit="10"/>
<path d="M161.817 485.314L175.752 476.683" stroke="#042954" stroke-width="0.5" stroke-miterlimit="10"/>
<path d="M157.641 464.458L167.878 453.663" stroke="#042954" stroke-width="2" stroke-miterlimit="10"/>
<path d="M164.768 456.89C164.768 456.89 164.474 452.11 168.833 448.222C171.466 445.875 185.291 440.056 186.601 444.922C188.034 450.215 173.878 460.607 164.756 456.89H164.768Z" fill="#24548C" stroke="#042954" stroke-miterlimit="10"/>
<path d="M164.768 456.89L178.703 448.259" stroke="#042954" stroke-width="0.5" stroke-miterlimit="10"/>
<path d="M161.976 422.794L172.201 411.999" stroke="#042954" stroke-width="2" stroke-miterlimit="10"/>
<path d="M169.103 415.238C169.103 415.238 168.809 410.458 173.168 406.571C175.801 404.223 189.626 398.404 190.936 403.27C192.369 408.563 178.213 418.955 169.09 415.238H169.103Z" fill="#24548C" stroke="#042954" stroke-miterlimit="10"/>
<path d="M169.103 415.238L183.038 406.595" stroke="#042954" stroke-width="0.5" stroke-miterlimit="10"/>
<path d="M164.204 396.045C164.204 396.045 163.911 391.264 168.27 387.377C170.903 385.029 184.728 379.21 186.038 384.076C187.471 389.37 173.315 399.761 164.192 396.045H164.204Z" fill="#24548C" stroke="#042954" stroke-miterlimit="10"/>
<path d="M164.204 396.045L178.14 387.413" stroke="#042954" stroke-width="0.5" stroke-miterlimit="10"/>
<path d="M164.78 396.668C164.78 396.668 159.992 396.46 156.563 391.717C154.506 388.868 150.159 374.528 155.143 373.721C160.555 372.853 169.433 388 164.78 396.656V396.668Z" fill="#24548C" stroke="#042954" stroke-miterlimit="10"/>
<path d="M164.78 396.668L157.641 381.924" stroke="#042954" stroke-width="0.5" stroke-miterlimit="10"/>
<path d="M138.416 309.281V582.518" stroke="#042954" stroke-width="2" stroke-miterlimit="10"/>
<path d="M138.624 541.441L129.562 529.631" stroke="#042954" stroke-width="2" stroke-miterlimit="10"/>
<path d="M132.33 533.177C132.33 533.177 133.113 528.458 129.183 524.13C126.807 521.526 113.655 514.313 111.843 519.02C109.872 524.13 122.876 535.927 132.33 533.177Z" fill="#24548C" stroke="#042954" stroke-miterlimit="10"/>
<path d="M132.33 533.177L120.084 523.665" stroke="#042954" stroke-width="0.5" stroke-miterlimit="10"/>
<path d="M138.624 490.082L129.562 478.285" stroke="#042954" stroke-width="2" stroke-miterlimit="10"/>
<path d="M132.33 481.83C132.33 481.83 133.113 477.111 129.183 472.783C126.807 470.179 113.655 462.966 111.843 467.673C109.872 472.783 122.876 484.581 132.33 481.83Z" fill="#24548C" stroke="#042954" stroke-miterlimit="10"/>
<path d="M132.33 481.83L120.084 472.319" stroke="#042954" stroke-width="0.5" stroke-miterlimit="10"/>
<path d="M138.624 429.799L129.562 418.001" stroke="#042954" stroke-width="2" stroke-miterlimit="10"/>
<path d="M132.33 421.534C132.33 421.534 133.113 416.815 129.183 412.488C126.807 409.884 113.655 402.671 111.843 407.377C109.872 412.488 122.876 424.285 132.33 421.534Z" fill="#24548C" stroke="#042954" stroke-miterlimit="10"/>
<path d="M132.33 421.534L120.084 412.023" stroke="#042954" stroke-width="0.5" stroke-miterlimit="10"/>
<path d="M138.624 389.663L129.562 377.865" stroke="#042954" stroke-width="2" stroke-miterlimit="10"/>
<path d="M132.33 381.399C132.33 381.399 133.113 376.68 129.183 372.352C126.807 369.748 113.655 362.535 111.843 367.242C109.872 372.352 122.876 384.149 132.33 381.399Z" fill="#24548C" stroke="#042954" stroke-miterlimit="10"/>
<path d="M132.33 381.399L120.084 371.887" stroke="#042954" stroke-width="0.5" stroke-miterlimit="10"/>
<path d="M138.624 349.356L129.562 337.558" stroke="#042954" stroke-width="2" stroke-miterlimit="10"/>
<path d="M132.33 341.092C132.33 341.092 133.113 336.373 129.183 332.045C126.807 329.441 113.655 322.228 111.843 326.935C109.872 332.045 122.876 343.842 132.33 341.092Z" fill="#24548C" stroke="#042954" stroke-miterlimit="10"/>
<path d="M132.33 341.091L120.084 331.58" stroke="#042954" stroke-width="0.5" stroke-miterlimit="10"/>
<path d="M138.428 557.114L147.489 545.316" stroke="#042954" stroke-width="2" stroke-miterlimit="10"/>
<path d="M144.734 548.862C144.734 548.862 143.951 544.143 147.881 539.815C150.257 537.211 163.409 529.998 165.221 534.705C167.192 539.815 154.188 551.612 144.734 548.862Z" fill="#24548C" stroke="#042954" stroke-miterlimit="10"/>
<path d="M144.734 548.862L157.702 538.837" stroke="#042954" stroke-width="0.5" stroke-miterlimit="10"/>
<path d="M138.428 475.448L147.489 463.651" stroke="#042954" stroke-width="2" stroke-miterlimit="10"/>
<path d="M144.734 467.184C144.734 467.184 143.951 462.465 147.881 458.137C150.257 455.533 163.409 448.32 165.221 453.027C167.192 458.137 154.188 469.935 144.734 467.184Z" fill="#24548C" stroke="#042954" stroke-miterlimit="10"/>
<path d="M144.734 467.184L157.702 457.159" stroke="#042954" stroke-width="0.5" stroke-miterlimit="10"/>
<path d="M138.428 435.141L147.489 423.344" stroke="#042954" stroke-width="2" stroke-miterlimit="10"/>
<path d="M144.734 426.877C144.734 426.877 143.951 422.158 147.881 417.83C150.257 415.226 163.409 408.013 165.221 412.72C167.192 417.83 154.188 429.628 144.734 426.877Z" fill="#24548C" stroke="#042954" stroke-miterlimit="10"/>
<path d="M144.734 426.877L157.702 416.852" stroke="#042954" stroke-width="0.5" stroke-miterlimit="10"/>
<path d="M138.428 381.863L147.489 370.066" stroke="#042954" stroke-width="2" stroke-miterlimit="10"/>
<path d="M144.734 373.599C144.734 373.599 143.951 368.88 147.881 364.552C150.257 361.948 163.409 354.735 165.221 359.442C167.192 364.552 154.188 376.35 144.734 373.599Z" fill="#24548C" stroke="#042954" stroke-miterlimit="10"/>
<path d="M144.734 373.599L157.702 363.574" stroke="#042954" stroke-width="0.5" stroke-miterlimit="10"/>
<path d="M138.428 339.979L147.489 328.169" stroke="#042954" stroke-width="2" stroke-miterlimit="10"/>
<path d="M144.734 331.715C144.734 331.715 143.951 326.996 147.881 322.668C150.257 320.064 163.409 312.851 165.221 317.558C167.192 322.668 154.188 334.465 144.734 331.715Z" fill="#24548C" stroke="#042954" stroke-miterlimit="10"/>
<path d="M144.734 331.715L157.702 321.69" stroke="#042954" stroke-width="0.5" stroke-miterlimit="10"/>
<path d="M137.889 313.132C137.889 313.132 137.105 308.413 141.036 304.085C143.412 301.481 156.563 294.268 158.376 298.975C160.347 304.085 147.343 315.883 137.889 313.132Z" fill="#24548C" stroke="#042954" stroke-miterlimit="10"/>
<path d="M137.889 313.132L150.857 303.107" stroke="#042954" stroke-width="0.5" stroke-miterlimit="10"/>
<path d="M138.514 313.694C138.514 313.694 133.726 313.988 129.832 309.611C127.493 306.983 121.688 293.168 126.562 291.86C131.864 290.442 142.248 304.587 138.514 313.682V313.694Z" fill="#24548C" stroke="#042954" stroke-miterlimit="10"/>
<path d="M138.514 313.694L129.893 299.77" stroke="#042954" stroke-width="0.5" stroke-miterlimit="10"/>
<path d="M149.669 653.389H120.684L117.06 580.305H153.294L149.669 653.389Z" fill="#042954" stroke="#042954" stroke-miterlimit="10"/>
<path d="M411.562 356.398H500.941L480.124 432.953H390.745L411.562 356.398Z" fill="#95A8C3" stroke="#042954" stroke-linecap="round" stroke-linejoin="round"/>
<path d="M414.011 358.843H496.729L477.467 429.701H394.749L414.011 358.843Z" fill="#E6EAF0" stroke="#042954" stroke-linecap="round" stroke-linejoin="round"/>
<path d="M480.124 428.894H354.829V432.965H480.124V428.894Z" fill="#95A8C3" stroke="#042954" stroke-linecap="round" stroke-linejoin="round"/>
<path d="M480.124 428.894H422.546V432.965H480.124V428.894Z" fill="#BECADB" stroke="#042954" stroke-linecap="round" stroke-linejoin="round"/>
<path d="M321.485 439.445H314.75V652.912H321.485V439.445Z" fill="#E6EAF0" stroke="#042954" stroke-linecap="round" stroke-linejoin="round"/>
<path d="M308.994 652.912H314.75V439.445H308.994V652.912Z" fill="#4B6C9A" stroke="#042954" stroke-linecap="round" stroke-linejoin="round"/>
<path d="M494.01 551.136H487.275V652.912H494.01V551.136Z" fill="#E6EAF0" stroke="#042954" stroke-linecap="round" stroke-linejoin="round"/>
<path d="M481.52 652.924H487.275V551.148H481.52V652.924Z" fill="#4B6C9A" stroke="#042954" stroke-linecap="round" stroke-linejoin="round"/>
<path d="M566.136 551.136H559.401V652.912H566.136V551.136Z" fill="#E6EAF0" stroke="#042954" stroke-linecap="round" stroke-linejoin="round"/>
<path d="M553.645 652.924H559.401V551.148H553.645V652.924Z" fill="#4B6C9A" stroke="#042954" stroke-linecap="round" stroke-linejoin="round"/>
<path d="M420.526 556.943H486.234V441.511H420.526V556.943Z" fill="#4B6C9A" stroke="#042954" stroke-linecap="round" stroke-linejoin="round"/>
<path d="M572.822 441.523H486.234V556.955H572.822V441.523Z" fill="#E6EAF0" stroke="#042954" stroke-linecap="round" stroke-linejoin="round"/>
<path d="M486.234 441.523H420.526V447.147H486.234H572.822V441.523H486.234Z" fill="#042954" stroke="#042954" stroke-linecap="round" stroke-linejoin="round"/>
<path d="M482.157 448.137H426.134V475.082H482.157V448.137Z" fill="#E6EAF0" stroke="#042954" stroke-linecap="round" stroke-linejoin="round"/>
<path d="M461.523 459.066H446.755V464.152H461.523V459.066Z" fill="#042954"/>
<path d="M482.157 485.253H426.134V512.198H482.157V485.253Z" fill="#E6EAF0" stroke="#042954" stroke-linecap="round" stroke-linejoin="round"/>
<path d="M461.523 495.681H446.755V500.767H461.523V495.681Z" fill="#042954"/>
<path d="M482.157 522.369H426.134V549.314H482.157V522.369Z" fill="#E6EAF0" stroke="#042954" stroke-linecap="round" stroke-linejoin="round"/>
<path d="M461.523 532.284H446.755V537.37H461.523V532.284Z" fill="#042954"/>
<path d="M581.749 436.449H299.7V443.161H581.749V436.449Z" fill="#4B6C9A" stroke="#042954" stroke-linecap="round" stroke-linejoin="round"/>
<path d="M581.749 436.449H496.582V443.161H581.749V436.449Z" fill="#E6EAF0" stroke="#042954" stroke-linecap="round" stroke-linejoin="round"/>
<path d="M323.628 504.765C323.628 504.765 332.028 510.572 344.494 546.453C348.645 558.398 371.911 622.727 373.136 627.214C374.36 631.701 376.809 636.994 380.483 636.994C384.157 636.994 397.627 619.879 395.998 617.837C394.369 615.796 386.606 607.654 386.606 607.654C386.606 607.654 381.977 555.573 381.157 540.903C380.336 526.233 383.679 508.555 375.928 496.745C368.176 484.923 333.889 497.148 333.889 497.148L323.64 504.765H323.628Z" fill="#E6EAF0" stroke="#042954" stroke-linecap="round" stroke-linejoin="round"/>
<path d="M390.267 607.654C390.267 607.654 386.998 609.28 387.414 612.947C387.818 616.615 391.492 621.505 391.492 621.505C391.492 621.505 383.74 627.618 379.65 628.021C375.573 628.425 371.079 629.244 371.079 630.466C371.079 631.689 374.348 633.73 376.381 638.205C378.426 642.692 382.908 649.611 384.132 651.249C385.357 652.875 386.177 654.098 390.659 652.875C395.141 651.653 404.949 642.692 410.252 639.024C415.554 635.356 431.473 632.911 434.338 630.87C437.192 628.828 446.18 615.796 442.09 613.351C438 610.906 436.787 613.754 431.889 614.977C426.991 616.199 412.701 614.573 404.949 612.935C397.198 611.309 394.749 610.893 394.749 610.893L390.255 607.629L390.267 607.654Z" fill="#24548C" stroke="#042954" stroke-linecap="round" stroke-linejoin="round"/>
<path d="M383.483 650.332C383.753 650.724 383.973 651.041 384.144 651.262C385.369 652.887 386.189 654.11 390.671 652.887C395.153 651.665 404.962 642.704 410.264 639.036C415.566 635.369 431.485 632.923 434.351 630.882C437.204 628.84 446.192 615.808 442.102 613.363C441.416 612.947 440.804 612.703 440.253 612.556C440.326 612.825 440.4 613.069 440.473 613.363C441.698 618.253 437.62 623.143 433.947 626.811C430.273 630.478 418.027 629.659 404.558 636.591C395.153 641.432 387.34 647.252 383.483 650.332Z" fill="#E6EAF0" stroke="#042954" stroke-linecap="round" stroke-linejoin="round"/>
<path d="M383.103 566.882C382.222 556.173 381.45 546.148 381.156 540.903C380.336 526.233 383.679 508.555 375.928 496.745C368.176 484.923 333.889 497.148 333.889 497.148L323.64 504.765C323.64 504.765 332.04 510.572 344.506 546.453C346.085 551.026 350.469 563.251 355.355 576.87L383.128 566.882H383.103Z" fill="#042954" stroke="#042954" stroke-linecap="round" stroke-linejoin="round"/>
<path d="M363.119 295.735C363.119 295.735 364.968 300.54 364.601 304.611C364.233 308.682 360.523 310.528 360.156 309.416C359.788 308.303 359.788 305.345 359.788 303.865V302.386C359.788 302.386 359.054 303.865 356.458 306.457C353.861 309.049 352.38 308.303 351.278 308.303C350.176 308.303 349.796 304.611 351.645 302.019C353.494 299.427 359.421 293.51 363.131 295.735H363.119Z" fill="#E6EAF0" stroke="#042954" stroke-linecap="round" stroke-linejoin="round"/>
<path d="M371.63 305.345C367.931 303.132 362.372 310.895 353.849 309.037C352.759 308.804 352.368 307.191 354.217 303.486C356.066 299.794 361.992 296.836 364.956 294.611C367.919 292.398 370.136 290.54 370.136 287.96C370.136 285.38 363.474 289.439 361.613 290.919C360.768 291.591 357.756 293.119 354.621 294.647C354.168 294.66 353.629 294.684 353.029 294.721C349.723 294.928 344.653 295.515 342.718 297.202C340.196 299.403 338.763 306.922 338.151 309.819C336.51 312.191 335.04 314.367 334.195 315.687C331.599 319.758 279.385 357.84 279.385 357.84L283.083 390.372L342.339 323.084C342.339 323.084 343.82 321.604 347.898 320.125C351.976 318.646 357.523 317.533 362.348 314.954C367.16 312.362 367.527 311.995 372.719 308.67C375.23 307.056 373.613 306.543 371.605 305.345H371.63Z" fill="#E6EAF0" stroke="#042954" stroke-linecap="round" stroke-linejoin="round"/>
<path d="M309.349 335.663C294.851 346.593 279.409 357.84 279.409 357.84L283.107 390.372L319.501 349.038L309.337 335.651L309.349 335.663Z" fill="#24548C" stroke="#042954" stroke-linecap="round" stroke-linejoin="round"/>
<path d="M291.128 458.687C291.128 458.687 317.248 457.465 355.208 463.578C393.169 469.69 407.374 476.194 406.235 483.542C401.606 513.298 332.016 611.26 332.016 611.26L333.24 625.111C333.24 625.111 330.791 628.376 322.219 628.779C313.648 629.182 303.031 616.957 303.031 616.957C303.031 616.957 312.607 607.067 316.28 595.245C319.954 583.423 349.49 507.173 349.49 507.173C349.49 507.173 310.709 515.731 267.85 507.992C224.991 500.254 291.116 458.687 291.116 458.687H291.128Z" fill="#E6EAF0" stroke="#042954" stroke-linecap="round" stroke-linejoin="round"/>
<path d="M355.221 463.578C317.26 457.465 291.14 458.687 291.14 458.687C291.14 458.687 225.015 500.254 267.874 507.992C310.733 515.731 349.514 507.173 349.514 507.173C349.514 507.173 337.22 538.91 327.509 564.608L356.298 575.66C376.858 544.522 403.455 501.55 406.247 483.542C407.386 476.194 393.182 469.69 355.221 463.578Z" fill="#042954" stroke="#042954" stroke-linecap="round" stroke-linejoin="round"/>
<path d="M332.016 611.26C332.016 611.26 329.567 612.079 328.342 614.928C327.118 617.776 326.297 620.637 326.297 620.637C326.297 620.637 318.546 619.011 313.231 616.566C307.929 614.121 304.255 611.676 304.255 611.676C304.255 611.676 300.582 612.079 300.582 614.524C300.582 616.969 300.178 621.456 298.537 625.527C297.484 628.156 295.255 633.987 293.785 637.801C293.063 639.696 294.19 641.787 296.173 642.227C302.639 643.657 316.256 646.799 327.913 650.381C343.832 655.271 361.38 652.826 363.425 652.423C365.47 652.02 373.626 647.129 369.952 643.865C366.278 640.601 344.641 632.043 340.159 626.346C335.665 620.637 331.991 611.272 331.991 611.272L332.016 611.26Z" fill="#24548C" stroke="#042954" stroke-linecap="round" stroke-linejoin="round"/>
<path d="M368.348 642.716C368.323 646.763 366.266 650.785 359.776 650.785C353.286 650.785 341.812 649.966 325.489 643.45C312.594 638.303 299.957 635.185 295.218 634.109C294.716 635.43 294.226 636.701 293.81 637.801C293.087 639.696 294.214 641.787 296.198 642.227C302.663 643.657 316.28 646.799 327.938 650.381C343.857 655.271 361.405 652.826 363.45 652.423C365.495 652.02 373.65 647.129 369.976 643.865C369.609 643.535 369.046 643.156 368.336 642.716H368.348Z" fill="#E6EAF0" stroke="#042954" stroke-linecap="round" stroke-linejoin="round"/>
<path d="M208.68 363.757C208.68 363.757 204.235 398.881 204.602 405.544C204.969 412.194 209.782 469.507 210.896 482.087C212.011 494.654 217.19 505.755 226.448 507.968C235.705 510.181 259.78 513.518 270.152 510.926C280.524 508.335 291.63 485.045 295.341 476.17C299.039 467.294 301.635 461.744 300.52 459.898C299.406 458.052 294.594 453.981 294.594 453.981C294.594 453.981 285.336 386.692 283.107 369.308C280.891 351.935 281.993 350.456 273.85 343.793C265.707 337.143 223.485 331.592 208.668 363.757H208.68Z" fill="#24548C" stroke="#042954" stroke-linecap="round" stroke-linejoin="round"/>
<path d="M267.935 486.366C266.601 487.38 265.205 488.346 263.784 489.251" stroke="#042954" stroke-linecap="round" stroke-linejoin="round"/>
<path d="M292.353 456.646C292.353 456.646 284.491 472.05 271.474 483.468" stroke="#042954" stroke-linecap="round" stroke-linejoin="round"/>
<path d="M286.646 457.465C286.646 457.465 273.997 469.287 261.335 476.622" stroke="#042954" stroke-linecap="round" stroke-linejoin="round"/>
<path d="M296.822 253.203C296.822 253.203 300.52 260.966 301.635 266.517C302.749 272.067 303.116 277.238 305.712 278.351C308.309 279.463 313.121 279.83 312.374 282.789C311.639 285.747 306.815 290.552 306.815 290.552C306.815 290.552 307.929 308.303 307.549 311.628C307.182 314.954 287.553 314.954 286.438 314.954C285.324 314.954 274.217 341.202 274.217 341.202L243.102 325.675L249.028 306.445C249.028 306.445 239.404 287.96 238.657 279.818C237.91 271.676 256.804 256.895 267.544 253.57C278.283 250.245 296.798 253.203 296.798 253.203H296.822Z" fill="#E6EAF0" stroke="#042954" stroke-linecap="round" stroke-linejoin="round"/>
<path d="M286.45 314.954L276.568 312.142L280.267 326.58L286.45 314.954Z" fill="#042954" stroke="#042954" stroke-linecap="round" stroke-linejoin="round"/>
<path d="M300.484 274.121C300.986 276.211 300.741 278.045 299.945 278.241C299.149 278.436 298.096 276.896 297.594 274.806C297.092 272.715 297.337 270.881 298.133 270.686C298.929 270.49 299.982 272.03 300.484 274.121Z" fill="#042954"/>
<path d="M294.226 293.877C294.226 293.877 298.671 297.202 302.749 295.723" stroke="#042954" stroke-linecap="round" stroke-linejoin="round"/>
<path d="M294.973 246.186C294.973 246.186 300.153 255.428 296.455 261.345C292.757 267.262 283.867 269.854 279.054 275.392C274.242 280.943 271.646 290.552 269.797 291.298C267.948 292.031 262.388 280.943 259.057 281.688C255.727 282.434 250.167 290.197 254.98 298.327C259.792 306.457 268.315 305.357 268.315 305.357C268.315 305.357 254.98 312.386 252.384 312.386C249.788 312.386 242.012 307.949 238.314 303.877C234.616 299.806 221.28 287.605 220.533 277.63C219.786 267.654 233.122 255.074 233.122 255.074C233.122 255.074 217.19 253.961 221.268 248.044C225.346 242.127 239.783 238.435 239.783 238.435C239.783 238.435 237.187 229.193 240.898 227.347C244.596 225.501 267.188 232.897 267.188 232.897C267.188 232.897 260.894 224.767 269.784 224.388C278.675 224.021 293.859 235.11 294.973 246.198V246.186Z" fill="#042954" stroke="#042954" stroke-linecap="round" stroke-linejoin="round"/>
<path d="M265.499 286.334L312.741 267.262" stroke="#042954" stroke-linecap="round" stroke-linejoin="round"/>
<path d="M300.423 264.585C301.414 264.169 302.516 263.937 303.668 263.937C308.272 263.937 311.994 267.666 311.994 272.263C311.994 275.38 310.28 278.094 307.733 279.525" stroke="#042954" stroke-linecap="round" stroke-linejoin="round"/>
<path d="M283.12 351.556C283.12 351.556 282.752 340.835 279.789 337.876C276.826 334.918 254.98 322.717 244.975 320.125C234.971 317.533 224.611 321.238 217.937 323.45C211.276 325.663 206.831 331.959 204.235 345.639C201.639 359.32 201.271 367.828 206.831 368.562C212.39 369.295 220.166 352.657 237.567 349.331C254.968 346.006 270.899 348.965 274.597 350.811C278.295 352.657 283.12 351.544 283.12 351.544V351.556Z" fill="#24548C" stroke="#042954" stroke-linecap="round" stroke-linejoin="round"/>
<path d="M226.864 340.211C223.521 341.385 221.268 342.314 221.268 342.314" stroke="#042954" stroke-linecap="round" stroke-linejoin="round"/>
<path d="M283.12 351.556C283.12 351.556 259.792 338.61 251.269 336.03C246.824 334.673 238.84 336.458 232.216 338.463" stroke="#042954" stroke-linecap="round" stroke-linejoin="round"/>
<path d="M393.096 411.656C393.096 411.656 391.884 419.346 390.451 420.214C389.018 421.082 389.128 413.075 389.128 413.075C389.128 413.075 387.365 417.683 386.275 418.784C385.185 419.884 385.834 414.065 385.834 414.065L387.047 408.576L393.096 411.644V411.656Z" fill="#E6EAF0" stroke="#042954" stroke-linecap="round" stroke-linejoin="round"/>
<path d="M377.409 404.052L388.773 404.236C388.773 404.236 391.773 404.663 392.202 406.375C392.63 408.087 394.345 411.938 394.345 411.938L376.773 406.803L377.409 404.052Z" fill="#E6EAF0" stroke="#042954" stroke-linecap="round" stroke-linejoin="round"/>
<path d="M381.487 407.659C381.487 407.659 397.345 405.519 397.774 406.803C398.092 407.769 399.329 416.473 399.586 419.285C399.623 419.725 399.059 419.957 398.79 419.603L394.345 411.95L382.344 412.806C382.344 412.806 378.916 409.81 381.487 407.671V407.659Z" fill="#E6EAF0" stroke="#042954" stroke-linecap="round" stroke-linejoin="round"/>
<path d="M249.873 359.723C249.873 359.723 240.016 366.997 243.445 384.981C246.873 402.952 270.887 452.171 273.03 456.462C275.172 460.741 284.601 461.169 288.887 459.885C293.173 458.602 369.487 428.21 369.487 428.21C369.487 428.21 377.63 426.07 378.916 424.359C380.201 422.647 388.345 413.661 388.345 413.661C388.345 413.661 401.202 415.373 404.202 414.517C407.203 413.661 401.202 412.806 398.202 411.95C395.888 411.29 383.14 406.314 377.409 404.064C375.72 403.404 373.809 403.808 372.536 405.104C368.519 409.211 359.96 417.928 358.331 419.224C356.188 420.935 295.745 431.205 295.745 431.205C295.745 431.205 281.601 364.87 276.03 359.295C270.458 353.72 260.6 355.016 260.6 355.016" fill="#24548C"/>
<path d="M249.873 359.723C249.873 359.723 240.016 366.997 243.445 384.981C246.873 402.952 270.887 452.171 273.03 456.462C275.172 460.741 284.601 461.169 288.887 459.885C293.173 458.602 369.487 428.21 369.487 428.21C369.487 428.21 377.63 426.07 378.916 424.359C380.201 422.647 388.345 413.661 388.345 413.661C388.345 413.661 401.202 415.373 404.202 414.517C407.203 413.661 401.202 412.806 398.202 411.95C395.888 411.29 383.14 406.314 377.409 404.064C375.72 403.404 373.809 403.808 372.536 405.104C368.519 409.211 359.96 417.928 358.331 419.224C356.188 420.935 295.745 431.205 295.745 431.205C295.745 431.205 281.601 364.87 276.03 359.295C270.458 353.72 260.6 355.016 260.6 355.016" stroke="#042954" stroke-linecap="round" stroke-linejoin="round"/>
<path d="M329.603 444.029C349.625 436.107 369.474 428.21 369.474 428.21C369.474 428.21 377.618 426.07 378.903 424.359C380.189 422.647 388.332 413.661 388.332 413.661C388.332 413.661 401.19 415.373 404.19 414.517C407.19 413.661 401.19 412.806 398.19 411.95C395.876 411.29 383.128 406.314 377.397 404.064C375.707 403.404 373.797 403.808 372.524 405.104C368.507 409.211 359.947 417.928 358.319 419.224C357.204 420.116 340.318 423.319 324.362 426.192L329.591 444.029H329.603Z" fill="#E6EAF0" stroke="#042954" stroke-linecap="round" stroke-linejoin="round"/>
<path d="M195.614 528.262L176.94 652.154C176.695 653.413 178.519 653.866 178.911 652.643L207.039 530.291L195.614 528.25V528.262Z" fill="#6C86AB" stroke="#042954" stroke-linecap="round" stroke-linejoin="round"/>
<path d="M223.485 529.081L231.615 651.934C231.713 653.205 233.599 653.169 233.648 651.897L235.056 528.066L223.497 529.081H223.485Z" fill="#6C86AB" stroke="#042954" stroke-linecap="round" stroke-linejoin="round"/>
<path d="M250.878 530.939L273.164 651.641C273.434 652.888 275.295 652.594 275.16 651.323L262.18 528.311L250.878 530.939Z" fill="#6C86AB" stroke="#042954" stroke-linecap="round" stroke-linejoin="round"/>
<path d="M293.957 529.912L312.19 651.445C312.411 652.704 314.284 652.484 314.199 651.2L305.357 527.749L293.957 529.912Z" fill="#6C86AB" stroke="#042954" stroke-linecap="round" stroke-linejoin="round"/>
<path d="M276.532 505.181C276.532 505.181 255.102 498.053 245.098 472.368C235.093 446.694 218.66 402.463 207.235 396.754C195.798 391.044 173.658 401.742 172.225 443.125C170.793 484.495 174.148 515.279 183.381 525.426C191.549 534.387 205.423 545.805 253.584 546.612C296.59 547.346 314.162 530.976 320.113 525.426C326.236 519.717 335.836 508.041 327.975 508.041C320.113 508.041 286.536 508.041 276.532 505.193V505.181Z" fill="#E6EAF0" stroke="#042954" stroke-linecap="round" stroke-linejoin="round"/>
<g filter="url(#filter0_d_39_3749)">
<path d="M414.109 248.18V258.779" stroke="#24548C" stroke-width="0.25" stroke-miterlimit="10"/>
<path d="M414.082 259.082C415.224 259.736 415.65 260.83 415.428 261.582C415.348 261.839 415.173 262.134 414.926 262.361C414.683 262.585 414.395 262.72 414.082 262.72C413.77 262.72 413.482 262.585 413.238 262.361C412.992 262.134 412.816 261.838 412.737 261.582C412.514 260.83 412.94 259.736 414.082 259.082Z" fill="#24548C" stroke="#24548C"/>
<path d="M386.249 229.564C386.249 230.139 385.791 230.597 385.213 230.597C384.636 230.597 384.178 230.139 384.178 229.564C384.178 228.989 384.636 228.531 385.213 228.531C385.791 228.531 386.249 228.989 386.249 229.564Z" fill="#576C96" stroke="#24548C"/>
<path d="M386.249 244.709C386.249 245.283 385.791 245.741 385.213 245.741C384.636 245.741 384.178 245.283 384.178 244.709C384.178 244.134 384.636 243.676 385.213 243.676C385.791 243.676 386.249 244.134 386.249 244.709Z" fill="#576C96" stroke="#24548C"/>
<path d="M348.338 244.918C348.338 245.493 347.88 245.951 347.303 245.951C346.725 245.951 346.267 245.493 346.267 244.918C346.267 244.344 346.725 243.885 347.303 243.885C347.88 243.885 348.338 244.344 348.338 244.918Z" fill="#576C96" stroke="#24548C"/>
<path d="M373.966 244.905C373.966 245.595 373.406 246.148 372.721 246.148C372.025 246.148 371.475 245.598 371.475 244.905C371.475 244.213 372.025 243.663 372.721 243.663C373.416 243.663 373.966 244.213 373.966 244.905Z" fill="#576C96" stroke="#24548C"/>
<path d="M377.037 264.347C377.037 265.037 376.476 265.589 375.791 265.589C375.096 265.589 374.546 265.039 374.546 264.347C374.546 263.654 375.096 263.104 375.791 263.104C376.487 263.104 377.037 263.654 377.037 264.347Z" fill="#576C96" stroke="#24548C"/>
<path d="M366.998 237.136C366.998 237.603 366.622 237.973 366.16 237.973C365.687 237.973 365.321 237.606 365.321 237.136C365.321 236.667 365.687 236.3 366.16 236.3C366.632 236.3 366.998 236.666 366.998 237.136Z" fill="#576C96" stroke="#24548C"/>
<path d="M361.054 244.696C361.054 245.162 360.678 245.532 360.215 245.532C359.742 245.532 359.377 245.165 359.377 244.696C359.377 244.226 359.742 243.859 360.215 243.859C360.688 243.859 361.054 244.226 361.054 244.696Z" fill="#576C96" stroke="#24548C"/>
<path d="M366.998 252.268C366.998 252.735 366.622 253.104 366.16 253.104C365.687 253.104 365.321 252.738 365.321 252.268C365.321 251.798 365.687 251.432 366.16 251.432C366.632 251.432 366.998 251.798 366.998 252.268Z" fill="#576C96" stroke="#24548C"/>
<path d="M386.052 259.84C386.052 260.307 385.676 260.676 385.213 260.676C384.741 260.676 384.375 260.31 384.375 259.84C384.375 259.37 384.741 259.004 385.213 259.004C385.686 259.004 386.052 259.37 386.052 259.84Z" fill="#576C96" stroke="#24548C"/>
<path d="M376.42 256.067C376.42 256.354 376.185 256.589 375.896 256.589C375.607 256.589 375.373 256.354 375.373 256.067C375.373 255.781 375.607 255.545 375.896 255.545C376.185 255.545 376.42 255.781 376.42 256.067Z" fill="#576C96" stroke="#24548C"/>
<path d="M376 233.35C376 233.637 375.765 233.872 375.476 233.872C375.187 233.872 374.953 233.637 374.953 233.35C374.953 233.064 375.187 232.828 375.476 232.828C375.765 232.828 376 233.064 376 233.35Z" fill="#576C96" stroke="#24548C"/>
<path d="M357.773 240.713C357.773 240.999 357.538 241.235 357.249 241.235C356.96 241.235 356.726 240.999 356.726 240.713C356.726 240.426 356.96 240.191 357.249 240.191C357.538 240.191 357.773 240.426 357.773 240.713Z" fill="#576C96" stroke="#24548C"/>
<path d="M357.773 248.901C357.773 249.187 357.538 249.423 357.249 249.423C356.96 249.423 356.726 249.187 356.726 248.901C356.726 248.615 356.96 248.379 357.249 248.379C357.538 248.379 357.773 248.615 357.773 248.901Z" fill="#576C96" stroke="#24548C"/>
<path d="M376.42 273.046C376.42 273.332 376.185 273.568 375.896 273.568C375.607 273.568 375.373 273.332 375.373 273.046C375.373 272.759 375.607 272.524 375.896 272.524C376.185 272.524 376.42 272.759 376.42 273.046Z" fill="#576C96" stroke="#24548C"/>
<path d="M366.788 260.77C366.788 261.057 366.553 261.292 366.264 261.292C365.975 261.292 365.741 261.057 365.741 260.77C365.741 260.484 365.975 260.249 366.264 260.249C366.553 260.249 366.788 260.484 366.788 260.77Z" fill="#576C96" stroke="#24548C"/>
<path d="M371.289 258.517C371.289 258.686 371.146 258.829 370.975 258.829C370.805 258.829 370.662 258.686 370.662 258.517C370.662 258.348 370.805 258.205 370.975 258.205C371.146 258.205 371.289 258.348 371.289 258.517Z" fill="#576C96" stroke="#24548C"/>
<path d="M385.422 268.343C385.422 268.511 385.279 268.655 385.108 268.655C384.937 268.655 384.795 268.511 384.795 268.343C384.795 268.174 384.937 268.03 385.108 268.03C385.279 268.03 385.422 268.174 385.422 268.343Z" fill="#576C96" stroke="#24548C"/>
<path d="M380.514 262.094C380.514 262.217 380.417 262.314 380.292 262.314C380.161 262.314 380.071 262.223 380.071 262.094C380.071 261.964 380.161 261.873 380.292 261.873C380.424 261.873 380.514 261.964 380.514 262.094Z" fill="#576C96" stroke="#24548C"/>
<path d="M380.514 270.282C380.514 270.405 380.417 270.502 380.292 270.502C380.161 270.502 380.071 270.411 380.071 270.282C380.071 270.152 380.161 270.061 380.292 270.061C380.424 270.061 380.514 270.152 380.514 270.282Z" fill="#576C96" stroke="#24548C"/>
<path d="M371.092 267.006C371.092 267.13 370.995 267.227 370.87 267.227C370.739 267.227 370.649 267.136 370.649 267.006C370.649 266.877 370.739 266.786 370.87 266.786C371.002 266.786 371.092 266.877 371.092 267.006Z" fill="#576C96" stroke="#24548C"/>
<path d="M374.57 250.539C374.57 250.707 374.427 250.851 374.256 250.851C374.085 250.851 373.942 250.707 373.942 250.539C373.942 250.37 374.085 250.226 374.256 250.226C374.427 250.226 374.57 250.37 374.57 250.539Z" fill="#576C96" stroke="#24548C"/>
<path d="M366.578 244.813C366.578 244.982 366.435 245.126 366.264 245.126C366.094 245.126 365.951 244.982 365.951 244.813C365.951 244.645 366.094 244.501 366.264 244.501C366.435 244.501 366.578 244.645 366.578 244.813Z" fill="#576C96" stroke="#24548C"/>
<path d="M376 241.132C376 241.301 375.857 241.444 375.686 241.444C375.515 241.444 375.373 241.301 375.373 241.132C375.373 240.964 375.515 240.82 375.686 240.82C375.857 240.82 376 240.964 376 241.132Z" fill="#576C96" stroke="#24548C"/>
<path d="M379.687 248.901C379.687 249.069 379.544 249.213 379.374 249.213C379.203 249.213 379.06 249.069 379.06 248.901C379.06 248.732 379.203 248.589 379.374 248.589C379.545 248.589 379.687 248.732 379.687 248.901Z" fill="#576C96" stroke="#24548C"/>
<path d="M385.422 237.241C385.422 237.41 385.279 237.553 385.108 237.553C384.937 237.553 384.795 237.41 384.795 237.241C384.795 237.073 384.937 236.929 385.108 236.929C385.279 236.929 385.422 237.073 385.422 237.241Z" fill="#576C96" stroke="#24548C"/>
<path d="M385.632 252.281C385.632 252.515 385.45 252.698 385.213 252.698C384.977 252.698 384.795 252.515 384.795 252.281C384.795 252.047 384.977 251.864 385.213 251.864C385.45 251.864 385.632 252.047 385.632 252.281Z" fill="#576C96" stroke="#24548C"/>
<path d="M379.28 237.241C379.28 237.528 379.046 237.763 378.757 237.763C378.468 237.763 378.233 237.528 378.233 237.241C378.233 236.955 378.468 236.719 378.757 236.719C379.046 236.719 379.28 236.955 379.28 237.241Z" fill="#576C96" stroke="#24548C"/>
<path d="M366.998 269.247C366.998 269.713 366.622 270.083 366.16 270.083C365.687 270.083 365.321 269.716 365.321 269.247C365.321 268.777 365.687 268.41 366.16 268.41C366.632 268.41 366.998 268.777 366.998 269.247Z" fill="#576C96" stroke="#24548C"/>
<path d="M386.052 276.819C386.052 277.286 385.676 277.655 385.213 277.655C384.741 277.655 384.375 277.289 384.375 276.819C384.375 276.349 384.741 275.983 385.213 275.983C385.686 275.983 386.052 276.349 386.052 276.819Z" fill="#576C96" stroke="#24548C"/>
<path d="M385.213 229.564V276.819L366.159 269.247V252.006L346.883 244.696L385.226 229.551L385.213 229.564Z" stroke="#24548C" stroke-width="0.25" stroke-miterlimit="10"/>
<path d="M348.326 244.709H385.213L379.675 248.6" stroke="#24548C" stroke-width="0.25" stroke-miterlimit="10"/>
<path d="M357.249 240.713L385.226 276.819" stroke="#24548C" stroke-width="0.25" stroke-miterlimit="10"/>
<path d="M366.763 252.622L385.213 259.84L366.159 269.247V237.084L357.249 248.888" stroke="#24548C" stroke-width="0.25" stroke-miterlimit="10"/>
<path d="M385.213 229.564L372.576 244.591L366.16 252.229L374.256 250.539L372.918 245.115L379.413 248.901L385.213 252.281L376.264 256.067" stroke="#24548C" stroke-width="0.25" stroke-miterlimit="10"/>
<path d="M379.269 249.202L376.198 255.753L374.256 250.539L379.282 248.901" stroke="#24548C" stroke-width="0.25" stroke-miterlimit="10"/>
<path d="M372.104 244.303L366.264 236.901L385.213 245.128" stroke="#24548C" stroke-width="0.25" stroke-miterlimit="10"/>
<path d="M367.078 237.097L385.108 237.241" stroke="#24548C" stroke-width="0.25" stroke-miterlimit="10"/>
<path d="M375.476 233.416L385.213 244.709" stroke="#24548C" stroke-width="0.25" stroke-miterlimit="10"/>
<path d="M375.896 256.067L366.264 260.77L375.896 273.125L385.121 268.343L375.896 256.067Z" stroke="#24548C" stroke-width="0.25" stroke-miterlimit="10"/>
<path d="M375.791 256.434L375.896 273.125" stroke="#24548C" stroke-width="0.25" stroke-miterlimit="10"/>
<path d="M366.264 260.77L385.121 268.343" stroke="#24548C" stroke-width="0.25" stroke-miterlimit="10"/>
<path d="M387.47 230.18L423.74 244.709L396.092 256.067L404.28 254.325V269.26L387.483 276.229C387.483 276.229 387.483 274.985 386.46 274.579V269.875C386.46 269.875 387.693 268.238 386.46 266.81V262.107C386.46 262.107 389.334 259.932 386.46 257.548V254.076C386.46 254.076 387.89 252.255 386.46 250.945V247.067C386.46 247.067 389.334 244.591 386.46 242.508V238.957C386.46 238.957 388.1 237.32 386.46 235.708V232.001C386.46 232.001 387.693 231.228 387.483 230.206L387.47 230.18Z" fill="url(#paint0_linear_39_3749)"/>
</g>
<path d="M66.0085 653.389H636.388" stroke="#042954" stroke-linecap="round" stroke-linejoin="round"/>
<path d="M434.552 396.478C434.244 396.478 433.972 396.426 433.736 396.322C433.5 396.214 433.314 396.062 433.178 395.866C433.042 395.666 432.972 395.424 432.968 395.14H433.778C433.786 395.336 433.856 395.502 433.988 395.638C434.124 395.77 434.31 395.836 434.546 395.836C434.75 395.836 434.912 395.788 435.032 395.692C435.152 395.592 435.212 395.46 435.212 395.296C435.212 395.124 435.158 394.99 435.05 394.894C434.946 394.798 434.806 394.72 434.63 394.66C434.454 394.6 434.266 394.536 434.066 394.468C433.742 394.356 433.494 394.212 433.322 394.036C433.154 393.86 433.07 393.626 433.07 393.334C433.066 393.086 433.124 392.874 433.244 392.698C433.368 392.518 433.536 392.38 433.748 392.284C433.96 392.184 434.204 392.134 434.48 392.134C434.76 392.134 435.006 392.184 435.218 392.284C435.434 392.384 435.602 392.524 435.722 392.704C435.846 392.884 435.912 393.098 435.92 393.346H435.098C435.094 393.198 435.036 393.068 434.924 392.956C434.816 392.84 434.664 392.782 434.468 392.782C434.3 392.778 434.158 392.82 434.042 392.908C433.93 392.992 433.874 393.116 433.874 393.28C433.874 393.42 433.918 393.532 434.006 393.616C434.094 393.696 434.214 393.764 434.366 393.82C434.518 393.876 434.692 393.936 434.888 394C435.096 394.072 435.286 394.156 435.458 394.252C435.63 394.348 435.768 394.476 435.872 394.636C435.976 394.792 436.028 394.994 436.028 395.242C436.028 395.462 435.972 395.666 435.86 395.854C435.748 396.042 435.582 396.194 435.362 396.31C435.142 396.422 434.872 396.478 434.552 396.478ZM438.6 396.478C438.176 396.478 437.812 396.388 437.508 396.208C437.204 396.024 436.97 395.77 436.806 395.446C436.642 395.118 436.56 394.74 436.56 394.312C436.56 393.884 436.642 393.506 436.806 393.178C436.97 392.85 437.204 392.594 437.508 392.41C437.812 392.226 438.176 392.134 438.6 392.134C439.104 392.134 439.516 392.26 439.836 392.512C440.16 392.76 440.362 393.11 440.442 393.562H439.596C439.544 393.334 439.432 393.156 439.26 393.028C439.092 392.896 438.868 392.83 438.588 392.83C438.2 392.83 437.896 392.962 437.676 393.226C437.456 393.49 437.346 393.852 437.346 394.312C437.346 394.772 437.456 395.134 437.676 395.398C437.896 395.658 438.2 395.788 438.588 395.788C438.868 395.788 439.092 395.728 439.26 395.608C439.432 395.484 439.544 395.314 439.596 395.098H440.442C440.362 395.53 440.16 395.868 439.836 396.112C439.516 396.356 439.104 396.478 438.6 396.478ZM441.122 396.406V392.206H441.89V393.952H443.774V392.206H444.542V396.406H443.774V394.576H441.89V396.406H441.122ZM447.326 396.478C446.906 396.478 446.538 396.386 446.222 396.202C445.91 396.018 445.664 395.764 445.484 395.44C445.308 395.112 445.22 394.734 445.22 394.306C445.22 393.878 445.308 393.502 445.484 393.178C445.664 392.85 445.91 392.594 446.222 392.41C446.538 392.226 446.906 392.134 447.326 392.134C447.742 392.134 448.108 392.226 448.424 392.41C448.74 392.594 448.986 392.85 449.162 393.178C449.338 393.502 449.426 393.878 449.426 394.306C449.426 394.734 449.338 395.112 449.162 395.44C448.986 395.764 448.74 396.018 448.424 396.202C448.108 396.386 447.742 396.478 447.326 396.478ZM447.326 395.788C447.726 395.788 448.044 395.656 448.28 395.392C448.52 395.128 448.64 394.766 448.64 394.306C448.64 393.846 448.52 393.484 448.28 393.22C448.044 392.956 447.726 392.824 447.326 392.824C446.926 392.824 446.606 392.956 446.366 393.22C446.126 393.484 446.006 393.846 446.006 394.306C446.006 394.766 446.126 395.128 446.366 395.392C446.606 395.656 446.926 395.788 447.326 395.788ZM452.072 396.478C451.652 396.478 451.284 396.386 450.968 396.202C450.656 396.018 450.41 395.764 450.23 395.44C450.054 395.112 449.966 394.734 449.966 394.306C449.966 393.878 450.054 393.502 450.23 393.178C450.41 392.85 450.656 392.594 450.968 392.41C451.284 392.226 451.652 392.134 452.072 392.134C452.488 392.134 452.854 392.226 453.17 392.41C453.486 392.594 453.732 392.85 453.908 393.178C454.084 393.502 454.172 393.878 454.172 394.306C454.172 394.734 454.084 395.112 453.908 395.44C453.732 395.764 453.486 396.018 453.17 396.202C452.854 396.386 452.488 396.478 452.072 396.478ZM452.072 395.788C452.472 395.788 452.79 395.656 453.026 395.392C453.266 395.128 453.386 394.766 453.386 394.306C453.386 393.846 453.266 393.484 453.026 393.22C452.79 392.956 452.472 392.824 452.072 392.824C451.672 392.824 451.352 392.956 451.112 393.22C450.872 393.484 450.752 393.846 450.752 394.306C450.752 394.766 450.872 395.128 451.112 395.392C451.352 395.656 451.672 395.788 452.072 395.788ZM455.676 396.406V392.824H454.452V392.206H457.674V392.824H456.444V396.406H455.676ZM458.243 396.406V392.206H460.985V392.824H459.011V393.976H460.805V394.576H459.011V395.788H460.985V396.406H458.243ZM463.613 396.478C463.189 396.478 462.825 396.388 462.521 396.208C462.217 396.024 461.983 395.77 461.819 395.446C461.655 395.118 461.573 394.74 461.573 394.312C461.573 393.884 461.655 393.506 461.819 393.178C461.983 392.85 462.217 392.594 462.521 392.41C462.825 392.226 463.189 392.134 463.613 392.134C464.117 392.134 464.529 392.26 464.849 392.512C465.173 392.76 465.375 393.11 465.455 393.562H464.609C464.557 393.334 464.445 393.156 464.273 393.028C464.105 392.896 463.881 392.83 463.601 392.83C463.213 392.83 462.909 392.962 462.689 393.226C462.469 393.49 462.359 393.852 462.359 394.312C462.359 394.772 462.469 395.134 462.689 395.398C462.909 395.658 463.213 395.788 463.601 395.788C463.881 395.788 464.105 395.728 464.273 395.608C464.445 395.484 464.557 395.314 464.609 395.098H465.455C465.375 395.53 465.173 395.868 464.849 396.112C464.529 396.356 464.117 396.478 463.613 396.478ZM466.135 396.406V392.206H466.903V393.952H468.787V392.206H469.555V396.406H468.787V394.576H466.903V396.406H466.135Z" fill="url(#paint1_linear_39_3749)"/>
<g clip-path="url(#clip1_39_3749)">
<mask id="mask0_39_3749" style="mask-type:luminance" maskUnits="userSpaceOnUse" x="413" y="389" width="18" height="12">
<path d="M430.238 389.406H413.117V400.409H430.238V389.406Z" fill="white"/>
</mask>
<g mask="url(#mask0_39_3749)">
<path d="M428.123 393.83V396.157" stroke="#4B6C9A" stroke-width="0.1" stroke-miterlimit="10"/>
<path d="M428.519 396.802C428.473 396.952 428.323 397.131 428.119 397.131C427.915 397.131 427.764 396.952 427.719 396.802C427.646 396.561 427.8 396.253 428.119 396.098C428.438 396.253 428.591 396.561 428.519 396.802Z" fill="#4B6C9A"/>
<path d="M421.779 390.08C421.965 390.08 422.116 389.929 422.116 389.743C422.116 389.557 421.965 389.406 421.779 389.406C421.592 389.406 421.441 389.557 421.441 389.743C421.441 389.929 421.592 390.08 421.779 390.08Z" fill="#4B6C9A"/>
<path d="M421.779 393.403C421.965 393.403 422.116 393.252 422.116 393.066C422.116 392.88 421.965 392.729 421.779 392.729C421.592 392.729 421.441 392.88 421.441 393.066C421.441 393.252 421.592 393.403 421.779 393.403Z" fill="#4B6C9A"/>
<path d="M413.455 393.448C413.641 393.448 413.792 393.297 413.792 393.111C413.792 392.925 413.641 392.774 413.455 392.774C413.268 392.774 413.117 392.925 413.117 393.111C413.117 393.297 413.268 393.448 413.455 393.448Z" fill="#4B6C9A"/>
<path d="M419.034 393.493C419.245 393.493 419.417 393.322 419.417 393.111C419.417 392.9 419.245 392.729 419.034 392.729C418.823 392.729 418.652 392.9 418.652 393.111C418.652 393.322 418.823 393.493 419.034 393.493Z" fill="#4B6C9A"/>
<path d="M419.709 397.759C419.92 397.759 420.091 397.588 420.091 397.378C420.091 397.167 419.92 396.996 419.709 396.996C419.498 396.996 419.327 397.167 419.327 397.378C419.327 397.588 419.498 397.759 419.709 397.759Z" fill="#4B6C9A"/>
<path d="M417.594 391.697C417.756 391.697 417.887 391.566 417.887 391.405C417.887 391.243 417.756 391.113 417.594 391.113C417.433 391.113 417.302 391.243 417.302 391.405C417.302 391.566 417.433 391.697 417.594 391.697Z" fill="#4B6C9A"/>
<path d="M416.289 393.358C416.451 393.358 416.582 393.228 416.582 393.066C416.582 392.905 416.451 392.774 416.289 392.774C416.128 392.774 415.997 392.905 415.997 393.066C415.997 393.228 416.128 393.358 416.289 393.358Z" fill="#4B6C9A"/>
<path d="M417.594 395.02C417.756 395.02 417.887 394.889 417.887 394.728C417.887 394.567 417.756 394.436 417.594 394.436C417.433 394.436 417.302 394.567 417.302 394.728C417.302 394.889 417.433 395.02 417.594 395.02Z" fill="#4B6C9A"/>
<path d="M421.779 396.682C421.94 396.682 422.071 396.551 422.071 396.39C422.071 396.228 421.94 396.098 421.779 396.098C421.617 396.098 421.486 396.228 421.486 396.39C421.486 396.551 421.617 396.682 421.779 396.682Z" fill="#4B6C9A"/>
<path d="M419.732 395.783C419.856 395.783 419.957 395.683 419.957 395.559C419.957 395.435 419.856 395.334 419.732 395.334C419.607 395.334 419.507 395.435 419.507 395.559C419.507 395.683 419.607 395.783 419.732 395.783Z" fill="#4B6C9A"/>
<path d="M419.642 390.798C419.766 390.798 419.867 390.698 419.867 390.574C419.867 390.45 419.766 390.349 419.642 390.349C419.517 390.349 419.417 390.45 419.417 390.574C419.417 390.698 419.517 390.798 419.642 390.798Z" fill="#4B6C9A"/>
<path d="M415.637 392.415C415.761 392.415 415.862 392.315 415.862 392.191C415.862 392.067 415.761 391.966 415.637 391.966C415.513 391.966 415.412 392.067 415.412 392.191C415.412 392.315 415.513 392.415 415.637 392.415Z" fill="#4B6C9A"/>
<path d="M415.637 394.212C415.761 394.212 415.862 394.111 415.862 393.987C415.862 393.863 415.761 393.762 415.637 393.762C415.513 393.762 415.412 393.863 415.412 393.987C415.412 394.111 415.513 394.212 415.637 394.212Z" fill="#4B6C9A"/>
<path d="M419.732 399.511C419.856 399.511 419.957 399.41 419.957 399.286C419.957 399.162 419.856 399.062 419.732 399.062C419.607 399.062 419.507 399.162 419.507 399.286C419.507 399.41 419.607 399.511 419.732 399.511Z" fill="#4B6C9A"/>
<path d="M417.617 396.816C417.741 396.816 417.842 396.716 417.842 396.592C417.842 396.468 417.741 396.367 417.617 396.367C417.492 396.367 417.392 396.468 417.392 396.592C417.392 396.716 417.492 396.816 417.617 396.816Z" fill="#4B6C9A"/>
<path d="M418.652 396.277C418.751 396.277 418.832 396.197 418.832 396.098C418.832 395.999 418.751 395.918 418.652 395.918C418.552 395.918 418.472 395.999 418.472 396.098C418.472 396.197 418.552 396.277 418.652 396.277Z" fill="#4B6C9A"/>
<path d="M421.756 398.433C421.856 398.433 421.936 398.353 421.936 398.253C421.936 398.154 421.856 398.074 421.756 398.074C421.657 398.074 421.576 398.154 421.576 398.253C421.576 398.353 421.657 398.433 421.756 398.433Z" fill="#4B6C9A"/>
<path d="M420.699 397.041C420.786 397.041 420.856 396.97 420.856 396.884C420.856 396.797 420.786 396.726 420.699 396.726C420.612 396.726 420.541 396.797 420.541 396.884C420.541 396.97 420.612 397.041 420.699 397.041Z" fill="#4B6C9A"/>
<path d="M420.699 398.837C420.786 398.837 420.856 398.767 420.856 398.68C420.856 398.593 420.786 398.523 420.699 398.523C420.612 398.523 420.541 398.593 420.541 398.68C420.541 398.767 420.612 398.837 420.699 398.837Z" fill="#4B6C9A"/>
<path d="M418.629 398.119C418.716 398.119 418.787 398.048 418.787 397.961C418.787 397.875 418.716 397.804 418.629 397.804C418.542 397.804 418.472 397.875 418.472 397.961C418.472 398.048 418.542 398.119 418.629 398.119Z" fill="#4B6C9A"/>
<path d="M419.372 394.526C419.471 394.526 419.552 394.445 419.552 394.346C419.552 394.247 419.471 394.167 419.372 394.167C419.272 394.167 419.192 394.247 419.192 394.346C419.192 394.445 419.272 394.526 419.372 394.526Z" fill="#4B6C9A"/>
<path d="M417.617 393.268C417.716 393.268 417.797 393.188 417.797 393.089C417.797 392.99 417.716 392.909 417.617 392.909C417.517 392.909 417.437 392.99 417.437 393.089C417.437 393.188 417.517 393.268 417.617 393.268Z" fill="#4B6C9A"/>
<path d="M419.687 392.46C419.786 392.46 419.867 392.38 419.867 392.28C419.867 392.181 419.786 392.101 419.687 392.101C419.587 392.101 419.507 392.181 419.507 392.28C419.507 392.38 419.587 392.46 419.687 392.46Z" fill="#4B6C9A"/>
<path d="M420.496 394.167C420.596 394.167 420.676 394.086 420.676 393.987C420.676 393.888 420.596 393.807 420.496 393.807C420.397 393.807 420.316 393.888 420.316 393.987C420.316 394.086 420.397 394.167 420.496 394.167Z" fill="#4B6C9A"/>
<path d="M421.756 391.607C421.856 391.607 421.936 391.526 421.936 391.427C421.936 391.328 421.856 391.247 421.756 391.247C421.657 391.247 421.576 391.328 421.576 391.427C421.576 391.526 421.657 391.607 421.756 391.607Z" fill="#4B6C9A"/>
<path d="M421.779 394.93C421.891 394.93 421.981 394.84 421.981 394.728C421.981 394.616 421.891 394.526 421.779 394.526C421.667 394.526 421.576 394.616 421.576 394.728C421.576 394.84 421.667 394.93 421.779 394.93Z" fill="#4B6C9A"/>
<path d="M420.361 391.652C420.486 391.652 420.586 391.551 420.586 391.427C420.586 391.303 420.486 391.203 420.361 391.203C420.237 391.203 420.136 391.303 420.136 391.427C420.136 391.551 420.237 391.652 420.361 391.652Z" fill="#4B6C9A"/>
<path d="M417.594 398.747C417.756 398.747 417.887 398.617 417.887 398.455C417.887 398.294 417.756 398.164 417.594 398.164C417.433 398.164 417.302 398.294 417.302 398.455C417.302 398.617 417.433 398.747 417.594 398.747Z" fill="#4B6C9A"/>
<path d="M421.779 400.409C421.94 400.409 422.071 400.278 422.071 400.117C422.071 399.956 421.94 399.825 421.779 399.825C421.617 399.825 421.486 399.956 421.486 400.117C421.486 400.278 421.617 400.409 421.779 400.409Z" fill="#4B6C9A"/>
<path d="M421.779 389.743V400.117L417.594 398.455V394.67L413.36 393.066L421.779 389.743Z" stroke="#4B6C9A" stroke-width="0.1" stroke-miterlimit="10"/>
<path d="M413.678 393.066H421.779L420.564 393.92" stroke="#4B6C9A" stroke-width="0.1" stroke-miterlimit="10"/>
<path d="M415.637 392.191L421.779 400.117" stroke="#4B6C9A" stroke-width="0.1" stroke-miterlimit="10"/>
<path d="M417.728 394.804L421.779 396.39L417.594 398.455V391.395L415.637 393.987" stroke="#4B6C9A" stroke-width="0.1" stroke-miterlimit="10"/>
<path d="M421.779 389.743L419.004 393.041L417.594 394.717L419.372 394.346L419.079 393.156L420.506 393.987L421.779 394.728L419.813 395.559" stroke="#4B6C9A" stroke-width="0.1" stroke-miterlimit="10"/>
<path d="M420.474 394.054L419.799 395.491L419.372 394.346L420.474 393.987" stroke="#4B6C9A" stroke-width="0.1" stroke-miterlimit="10"/>
<path d="M418.899 392.976L417.617 391.353L421.779 393.158" stroke="#4B6C9A" stroke-width="0.1" stroke-miterlimit="10"/>
<path d="M417.797 391.395L421.756 391.427" stroke="#4B6C9A" stroke-width="0.1" stroke-miterlimit="10"/>
<path d="M419.642 390.587L421.779 393.066" stroke="#4B6C9A" stroke-width="0.1" stroke-miterlimit="10"/>
<path d="M419.732 395.559L417.617 396.592L419.732 399.304L421.756 398.253L419.732 395.559Z" stroke="#4B6C9A" stroke-width="0.1" stroke-miterlimit="10"/>
<path d="M419.709 395.641L419.732 399.304" stroke="#4B6C9A" stroke-width="0.1" stroke-miterlimit="10"/>
<path d="M417.617 396.592L421.756 398.253" stroke="#4B6C9A" stroke-width="0.1" stroke-miterlimit="10"/>
<path d="M422.274 389.878L430.238 393.066L424.167 395.559L425.964 395.177V398.455L422.274 399.987C422.274 399.987 422.274 399.713 422.049 399.623V398.59C422.049 398.59 422.319 398.231 422.049 397.917V396.884C422.049 396.884 422.679 396.407 422.049 395.882V395.119C422.049 395.119 422.364 394.718 422.049 394.431V393.58C422.049 393.58 422.679 393.035 422.049 392.579V391.799C422.049 391.799 422.409 391.441 422.049 391.086V390.272C422.049 390.272 422.319 390.102 422.274 389.878Z" fill="url(#paint2_linear_39_3749)"/>
</g>
</g>
</g>
<g filter="url(#filter1_i_39_3749)">
<path d="M696.377 56.5712C711.947 56.5712 724.571 43.948 724.571 28.3768C724.571 12.8055 711.947 0.182373 696.377 0.182373C680.807 0.182373 668.182 12.8055 668.182 28.3768C668.182 43.948 680.807 56.5712 696.377 56.5712Z" fill="#6C86AB"/>
</g>
<line x1="720.237" y1="223.45" x2="697.256" y2="49.098" stroke="#6C86AB" stroke-width="1.5"/>
<line x1="659.298" y1="126.737" x2="695.298" y2="30.7367" stroke="#6C86AB" stroke-width="1.5"/>
<g filter="url(#filter2_i_39_3749)">
<path d="M723.56 265.121C735.468 265.121 745.121 255.468 745.121 243.56C745.121 231.653 735.468 222 723.56 222C711.653 222 702 231.653 702 243.56C702 255.468 711.653 265.121 723.56 265.121Z" fill="#6C86AB"/>
</g>
<g filter="url(#filter3_i_39_3749)">
<path d="M687.53 332.798C694.858 332.798 700.798 326.858 700.798 319.53C700.798 312.203 694.858 306.262 687.53 306.262C680.203 306.262 674.262 312.203 674.262 319.53C674.262 326.858 680.203 332.798 687.53 332.798Z" fill="#6C86AB"/>
</g>
<line x1="716.674" y1="262.33" x2="693.674" y2="309.33" stroke="#6C86AB" stroke-width="1.5"/>
<line x1="737.435" y1="377.493" x2="689.435" y2="322.493" stroke="#6C86AB" stroke-width="1.5"/>
<line x1="781.547" y1="592.514" x2="688.547" y2="691.513" stroke="#6C86AB" stroke-width="1.5"/>
<line x1="744.366" y1="800.4" x2="684.366" y2="705.401" stroke="#6C86AB" stroke-width="1.5"/>
<line x1="693.705" y1="328.743" x2="778.705" y2="561.743" stroke="#6C86AB" stroke-width="1.5"/>
<line x1="743.725" y1="378.808" x2="766.725" y2="465.808" stroke="#6C86AB" stroke-width="1.5"/>
<g filter="url(#filter4_i_39_3749)">
<path d="M787.744 603.622C801.483 603.622 812.622 592.483 812.622 578.744C812.622 565.005 801.483 553.867 787.744 553.867C774.005 553.867 762.867 565.005 762.867 578.744C762.867 592.483 774.005 603.622 787.744 603.622Z" fill="#6C86AB"/>
</g>
<g filter="url(#filter5_i_39_3749)">
<path d="M671.737 690.426C666.36 697.839 668.011 708.211 675.426 713.588C682.84 718.966 693.212 717.314 698.588 709.9C703.965 702.486 702.315 692.115 694.9 686.737C687.485 681.359 677.114 683.012 671.737 690.426Z" fill="#6C86AB"/>
</g>
<g filter="url(#filter6_i_39_3749)">
<path d="M729.737 367.426C724.36 374.839 726.011 385.211 733.426 390.588C740.84 395.966 751.212 394.314 756.588 386.9C761.965 379.486 760.315 369.115 752.9 363.737C745.485 358.359 735.114 360.012 729.737 367.426Z" fill="#6C86AB"/>
</g>
<g filter="url(#filter7_i_39_3749)">
<path d="M659.585 146.17C668.743 146.17 676.17 138.744 676.17 129.585C676.17 120.425 668.743 113 659.585 113C650.427 113 643 120.425 643 129.585C643 138.744 650.427 146.17 659.585 146.17Z" fill="#6C86AB"/>
</g>
<g filter="url(#filter8_i_39_3749)">
<path d="M767.53 482.798C774.858 482.798 780.798 476.858 780.798 469.53C780.798 462.203 774.858 456.262 767.53 456.262C760.203 456.262 754.262 462.203 754.262 469.53C754.262 476.858 760.203 482.798 767.53 482.798Z" fill="#6C86AB"/>
</g>
<defs>
<filter id="filter0_d_39_3749" x="341.767" y="228.031" width="85.9731" height="58.124" filterUnits="userSpaceOnUse" color-interpolation-filters="sRGB">
<feFlood flood-opacity="0" result="BackgroundImageFix"/>
<feColorMatrix in="SourceAlpha" type="matrix" values="0 0 0 0 0 0 0 0 0 0 0 0 0 0 0 0 0 0 127 0" result="hardAlpha"/>
<feOffset dy="4"/>
<feGaussianBlur stdDeviation="2"/>
<feComposite in2="hardAlpha" operator="out"/>
<feColorMatrix type="matrix" values="0 0 0 0 0 0 0 0 0 0 0 0 0 0 0 0 0 0 0.25 0"/>
<feBlend mode="normal" in2="BackgroundImageFix" result="effect1_dropShadow_39_3749"/>
<feBlend mode="normal" in="SourceGraphic" in2="effect1_dropShadow_39_3749" result="shape"/>
</filter>
<filter id="filter1_i_39_3749" x="668.182" y="0.182373" width="58.3888" height="58.3888" filterUnits="userSpaceOnUse" color-interpolation-filters="sRGB">
<feFlood flood-opacity="0" result="BackgroundImageFix"/>
<feBlend mode="normal" in="SourceGraphic" in2="BackgroundImageFix" result="shape"/>
<feColorMatrix in="SourceAlpha" type="matrix" values="0 0 0 0 0 0 0 0 0 0 0 0 0 0 0 0 0 0 127 0" result="hardAlpha"/>
<feOffset dx="2" dy="2"/>
<feGaussianBlur stdDeviation="3"/>
<feComposite in2="hardAlpha" operator="arithmetic" k2="-1" k3="1"/>
<feColorMatrix type="matrix" values="0 0 0 0 0 0 0 0 0 0 0 0 0 0 0 0 0 0 0.3 0"/>
<feBlend mode="normal" in2="shape" result="effect1_innerShadow_39_3749"/>
</filter>
<filter id="filter2_i_39_3749" x="702" y="222" width="45.1208" height="45.1208" filterUnits="userSpaceOnUse" color-interpolation-filters="sRGB">
<feFlood flood-opacity="0" result="BackgroundImageFix"/>
<feBlend mode="normal" in="SourceGraphic" in2="BackgroundImageFix" result="shape"/>
<feColorMatrix in="SourceAlpha" type="matrix" values="0 0 0 0 0 0 0 0 0 0 0 0 0 0 0 0 0 0 127 0" result="hardAlpha"/>
<feOffset dx="2" dy="2"/>
<feGaussianBlur stdDeviation="3"/>
<feComposite in2="hardAlpha" operator="arithmetic" k2="-1" k3="1"/>
<feColorMatrix type="matrix" values="0 0 0 0 0 0 0 0 0 0 0 0 0 0 0 0 0 0 0.3 0"/>
<feBlend mode="normal" in2="shape" result="effect1_innerShadow_39_3749"/>
</filter>
<filter id="filter3_i_39_3749" x="674.262" y="306.262" width="28.5359" height="28.5359" filterUnits="userSpaceOnUse" color-interpolation-filters="sRGB">
<feFlood flood-opacity="0" result="BackgroundImageFix"/>
<feBlend mode="normal" in="SourceGraphic" in2="BackgroundImageFix" result="shape"/>
<feColorMatrix in="SourceAlpha" type="matrix" values="0 0 0 0 0 0 0 0 0 0 0 0 0 0 0 0 0 0 127 0" result="hardAlpha"/>
<feOffset dx="2" dy="2"/>
<feGaussianBlur stdDeviation="3"/>
<feComposite in2="hardAlpha" operator="arithmetic" k2="-1" k3="1"/>
<feColorMatrix type="matrix" values="0 0 0 0 0 0 0 0 0 0 0 0 0 0 0 0 0 0 0.3 0"/>
<feBlend mode="normal" in2="shape" result="effect1_innerShadow_39_3749"/>
</filter>
<filter id="filter4_i_39_3749" x="762.867" y="553.867" width="51.7548" height="51.7548" filterUnits="userSpaceOnUse" color-interpolation-filters="sRGB">
<feFlood flood-opacity="0" result="BackgroundImageFix"/>
<feBlend mode="normal" in="SourceGraphic" in2="BackgroundImageFix" result="shape"/>
<feColorMatrix in="SourceAlpha" type="matrix" values="0 0 0 0 0 0 0 0 0 0 0 0 0 0 0 0 0 0 127 0" result="hardAlpha"/>
<feOffset dx="2" dy="2"/>
<feGaussianBlur stdDeviation="3"/>
<feComposite in2="hardAlpha" operator="arithmetic" k2="-1" k3="1"/>
<feColorMatrix type="matrix" values="0 0 0 0 0 0 0 0 0 0 0 0 0 0 0 0 0 0 0.3 0"/>
<feBlend mode="normal" in2="shape" result="effect1_innerShadow_39_3749"/>
</filter>
<filter id="filter5_i_39_3749" x="668.577" y="683.577" width="35.1715" height="35.1716" filterUnits="userSpaceOnUse" color-interpolation-filters="sRGB">
<feFlood flood-opacity="0" result="BackgroundImageFix"/>
<feBlend mode="normal" in="SourceGraphic" in2="BackgroundImageFix" result="shape"/>
<feColorMatrix in="SourceAlpha" type="matrix" values="0 0 0 0 0 0 0 0 0 0 0 0 0 0 0 0 0 0 127 0" result="hardAlpha"/>
<feOffset dx="2" dy="2"/>
<feGaussianBlur stdDeviation="3"/>
<feComposite in2="hardAlpha" operator="arithmetic" k2="-1" k3="1"/>
<feColorMatrix type="matrix" values="0 0 0 0 0 0 0 0 0 0 0 0 0 0 0 0 0 0 0.3 0"/>
<feBlend mode="normal" in2="shape" result="effect1_innerShadow_39_3749"/>
</filter>
<filter id="filter6_i_39_3749" x="726.577" y="360.577" width="35.1715" height="35.1716" filterUnits="userSpaceOnUse" color-interpolation-filters="sRGB">
<feFlood flood-opacity="0" result="BackgroundImageFix"/>
<feBlend mode="normal" in="SourceGraphic" in2="BackgroundImageFix" result="shape"/>
<feColorMatrix in="SourceAlpha" type="matrix" values="0 0 0 0 0 0 0 0 0 0 0 0 0 0 0 0 0 0 127 0" result="hardAlpha"/>
<feOffset dx="2" dy="2"/>
<feGaussianBlur stdDeviation="3"/>
<feComposite in2="hardAlpha" operator="arithmetic" k2="-1" k3="1"/>
<feColorMatrix type="matrix" values="0 0 0 0 0 0 0 0 0 0 0 0 0 0 0 0 0 0 0.3 0"/>
<feBlend mode="normal" in2="shape" result="effect1_innerShadow_39_3749"/>
</filter>
<filter id="filter7_i_39_3749" x="643" y="113" width="35.1699" height="35.1699" filterUnits="userSpaceOnUse" color-interpolation-filters="sRGB">
<feFlood flood-opacity="0" result="BackgroundImageFix"/>
<feBlend mode="normal" in="SourceGraphic" in2="BackgroundImageFix" result="shape"/>
<feColorMatrix in="SourceAlpha" type="matrix" values="0 0 0 0 0 0 0 0 0 0 0 0 0 0 0 0 0 0 127 0" result="hardAlpha"/>
<feOffset dx="2" dy="2"/>
<feGaussianBlur stdDeviation="3"/>
<feComposite in2="hardAlpha" operator="arithmetic" k2="-1" k3="1"/>
<feColorMatrix type="matrix" values="0 0 0 0 0 0 0 0 0 0 0 0 0 0 0 0 0 0 0.3 0"/>
<feBlend mode="normal" in2="shape" result="effect1_innerShadow_39_3749"/>
</filter>
<filter id="filter8_i_39_3749" x="754.262" y="456.262" width="28.5359" height="28.5359" filterUnits="userSpaceOnUse" color-interpolation-filters="sRGB">
<feFlood flood-opacity="0" result="BackgroundImageFix"/>
<feBlend mode="normal" in="SourceGraphic" in2="BackgroundImageFix" result="shape"/>
<feColorMatrix in="SourceAlpha" type="matrix" values="0 0 0 0 0 0 0 0 0 0 0 0 0 0 0 0 0 0 127 0" result="hardAlpha"/>
<feOffset dx="2" dy="2"/>
<feGaussianBlur stdDeviation="3"/>
<feComposite in2="hardAlpha" operator="arithmetic" k2="-1" k3="1"/>
<feColorMatrix type="matrix" values="0 0 0 0 0 0 0 0 0 0 0 0 0 0 0 0 0 0 0.3 0"/>
<feBlend mode="normal" in2="shape" result="effect1_innerShadow_39_3749"/>
</filter>
<linearGradient id="paint0_linear_39_3749" x1="409.621" y1="229.564" x2="383.156" y2="280.955" gradientUnits="userSpaceOnUse">
<stop stop-color="#1B2D54"/>
<stop offset="0.7" stop-color="#576C96"/>
</linearGradient>
<linearGradient id="paint1_linear_39_3749" x1="433.786" y1="389.7" x2="451.093" y2="417.019" gradientUnits="userSpaceOnUse">
<stop offset="0.0595896" stop-color="#042954"/>
<stop offset="1" stop-color="#4B6C9A"/>
</linearGradient>
<linearGradient id="paint2_linear_39_3749" x1="425.176" y1="388.733" x2="419.367" y2="400.014" gradientUnits="userSpaceOnUse">
<stop stop-color="#042954"/>
<stop offset="0.703568" stop-color="#4B6C9A"/>
</linearGradient>
<clipPath id="clip0_39_3749">
<rect width="579" height="547" fill="white" transform="translate(58 107)"/>
</clipPath>
<clipPath id="clip1_39_3749">
<rect width="17.1436" height="11.0028" fill="white" transform="translate(413.117 389.406)"/>
</clipPath>
</defs>
</svg>
