<svg width="381" height="245" viewBox="0 0 381 245" fill="none" xmlns="http://www.w3.org/2000/svg">
<mask id="mask0_1_533" style="mask-type:luminance" maskUnits="userSpaceOnUse" x="0" y="0" width="381" height="245">
<path d="M380.5 0H0V245H380.5V0Z" fill="white"/>
</mask>
<g mask="url(#mask0_1_533)">
<path d="M333.5 98.5V150.32" stroke="#4B6C9A" stroke-width="4" stroke-miterlimit="10"/>
<path d="M342.29 164.68C341.28 168.03 337.94 172 333.4 172C328.86 172 325.52 168.03 324.51 164.68C322.89 159.32 326.31 152.46 333.4 149C340.49 152.46 343.9 159.32 342.29 164.68Z" fill="#4B6C9A"/>
<path d="M192.5 15C196.642 15 200 11.6421 200 7.5C200 3.35786 196.642 0 192.5 0C188.358 0 185 3.35786 185 7.5C185 11.6421 188.358 15 192.5 15Z" fill="#4B6C9A"/>
<path d="M192.5 89C196.642 89 200 85.6421 200 81.5C200 77.3579 196.642 74 192.5 74C188.358 74 185 77.3579 185 81.5C185 85.6421 188.358 89 192.5 89Z" fill="#4B6C9A"/>
<path d="M7.5 90C11.6421 90 15 86.6421 15 82.5C15 78.3579 11.6421 75 7.5 75C3.35786 75 0 78.3579 0 82.5C0 86.6421 3.35786 90 7.5 90Z" fill="#4B6C9A"/>
<path d="M131.5 91C136.194 91 140 87.1944 140 82.5C140 77.8056 136.194 74 131.5 74C126.806 74 123 77.8056 123 82.5C123 87.1944 126.806 91 131.5 91Z" fill="#4B6C9A"/>
<path d="M146.5 186C151.194 186 155 182.194 155 177.5C155 172.806 151.194 169 146.5 169C141.806 169 138 172.806 138 177.5C138 182.194 141.806 186 146.5 186Z" fill="#4B6C9A"/>
<path d="M99.5 51C103.09 51 106 48.0899 106 44.5C106 40.9101 103.09 38 99.5 38C95.9101 38 93 40.9101 93 44.5C93 48.0899 95.9101 51 99.5 51Z" fill="#4B6C9A"/>
<path d="M70.5 88C74.0899 88 77 85.0899 77 81.5C77 77.9101 74.0899 75 70.5 75C66.9101 75 64 77.9101 64 81.5C64 85.0899 66.9101 88 70.5 88Z" fill="#4B6C9A"/>
<path d="M99.5 125C103.09 125 106 122.09 106 118.5C106 114.91 103.09 112 99.5 112C95.9101 112 93 114.91 93 118.5C93 122.09 95.9101 125 99.5 125Z" fill="#4B6C9A"/>
<path d="M192.5 162C196.09 162 199 159.09 199 155.5C199 151.91 196.09 149 192.5 149C188.91 149 186 151.91 186 155.5C186 159.09 188.91 162 192.5 162Z" fill="#4B6C9A"/>
<path d="M147 142C149.761 142 152 139.761 152 137C152 134.239 149.761 132 147 132C144.239 132 142 134.239 142 137C142 139.761 144.239 142 147 142Z" fill="#4B6C9A"/>
<path d="M145 31C147.761 31 150 28.7614 150 26C150 23.2386 147.761 21 145 21C142.239 21 140 23.2386 140 26C140 28.7614 142.239 31 145 31Z" fill="#4B6C9A"/>
<path d="M56 67C58.7614 67 61 64.7614 61 62C61 59.2386 58.7614 57 56 57C53.2386 57 51 59.2386 51 62C51 64.7614 53.2386 67 56 67Z" fill="#4B6C9A"/>
<path d="M56 107C58.7614 107 61 104.761 61 102C61 99.2386 58.7614 97 56 97C53.2386 97 51 99.2386 51 102C51 104.761 53.2386 107 56 107Z" fill="#4B6C9A"/>
<path d="M147 225C149.761 225 152 222.761 152 220C152 217.239 149.761 215 147 215C144.239 215 142 217.239 142 220C142 222.761 144.239 225 147 225Z" fill="#4B6C9A"/>
<path d="M100 165C102.761 165 105 162.761 105 160C105 157.239 102.761 155 100 155C97.2386 155 95 157.239 95 160C95 162.761 97.2386 165 100 165Z" fill="#4B6C9A"/>
<path d="M123 153C125.209 153 127 151.209 127 149C127 146.791 125.209 145 123 145C120.791 145 119 146.791 119 149C119 151.209 120.791 153 123 153Z" fill="#4B6C9A"/>
<path d="M192 201C194.209 201 196 199.209 196 197C196 194.791 194.209 193 192 193C189.791 193 188 194.791 188 197C188 199.209 189.791 201 192 201Z" fill="#4B6C9A"/>
<path d="M168.5 170C170.433 170 172 168.433 172 166.5C172 164.567 170.433 163 168.5 163C166.567 163 165 164.567 165 166.5C165 168.433 166.567 170 168.5 170Z" fill="#4B6C9A"/>
<path d="M168.5 210C170.433 210 172 208.433 172 206.5C172 204.567 170.433 203 168.5 203C166.567 203 165 204.567 165 206.5C165 208.433 166.567 210 168.5 210Z" fill="#4B6C9A"/>
<path d="M122.5 194C124.433 194 126 192.433 126 190.5C126 188.567 124.433 187 122.5 187C120.567 187 119 188.567 119 190.5C119 192.433 120.567 194 122.5 194Z" fill="#4B6C9A"/>
<path d="M139 114C141.209 114 143 112.209 143 110C143 107.791 141.209 106 139 106C136.791 106 135 107.791 135 110C135 112.209 136.791 114 139 114Z" fill="#4B6C9A"/>
<path d="M100 86C102.209 86 104 84.2091 104 82C104 79.7909 102.209 78 100 78C97.7909 78 96 79.7909 96 82C96 84.2091 97.7909 86 100 86Z" fill="#4B6C9A"/>
<path d="M146 68C148.209 68 150 66.2091 150 64C150 61.7909 148.209 60 146 60C143.791 60 142 61.7909 142 64C142 66.2091 143.791 68 146 68Z" fill="#4B6C9A"/>
<path d="M164 106C166.209 106 168 104.209 168 102C168 99.7909 166.209 98 164 98C161.791 98 160 99.7909 160 102C160 104.209 161.791 106 164 106Z" fill="#4B6C9A"/>
<path d="M192 49C194.209 49 196 47.2091 196 45C196 42.7909 194.209 41 192 41C189.791 41 188 42.7909 188 45C188 47.2091 189.791 49 192 49Z" fill="#4B6C9A"/>
<path d="M192.5 123C194.985 123 197 120.985 197 118.5C197 116.015 194.985 114 192.5 114C190.015 114 188 116.015 188 118.5C188 120.985 190.015 123 192.5 123Z" fill="#4B6C9A"/>
<path d="M161 50C163.761 50 166 47.7614 166 45C166 42.2386 163.761 40 161 40C158.239 40 156 42.2386 156 45C156 47.7614 158.239 50 161 50Z" fill="#4B6C9A"/>
<path d="M99.5 208C103.09 208 106 205.09 106 201.5C106 197.91 103.09 195 99.5 195C95.9101 195 93 197.91 93 201.5C93 205.09 95.9101 208 99.5 208Z" fill="#4B6C9A"/>
<path d="M192.5 245C196.09 245 199 242.09 199 238.5C199 234.91 196.09 232 192.5 232C188.91 232 186 234.91 186 238.5C186 242.09 188.91 245 192.5 245Z" fill="#4B6C9A"/>
<path d="M192.5 7.5V238.5L99.4999 201.5V117.21L5.3999 81.5L192.5 7.5Z" stroke="#4B6C9A" stroke-miterlimit="10"/>
<path d="M12.47 81.5H192.5L165.5 100.5" stroke="#4B6C9A" stroke-miterlimit="10"/>
<path d="M56 62L192.5 238.5" stroke="#4B6C9A" stroke-miterlimit="10"/>
<path d="M102.48 120.19L192.5 155.5L99.5 201.5V44.28L56 102" stroke="#4B6C9A" stroke-miterlimit="10"/>
<path d="M192.5 7.5L130.83 80.94L99.5 118.25L139 110L132.5 83.5L164.21 102L192.5 118.5L148.81 137" stroke="#4B6C9A" stroke-miterlimit="10"/>
<path d="M163.5 103.5L148.5 135.5L139 110L163.5 102" stroke="#4B6C9A" stroke-miterlimit="10"/>
<path d="M128.5 79.5L100 43.34L192.5 83.55" stroke="#4B6C9A" stroke-miterlimit="10"/>
<path d="M104 44.28L192 45" stroke="#4B6C9A" stroke-miterlimit="10"/>
<path d="M145 26.29L192.5 81.5" stroke="#4B6C9A" stroke-miterlimit="10"/>
<path d="M147 137L100 160L147 220.4L192 197L147 137Z" stroke="#4B6C9A" stroke-miterlimit="10"/>
<path d="M146.5 138.83L147 220.4" stroke="#4B6C9A" stroke-miterlimit="10"/>
<path d="M100 160L192 197" stroke="#4B6C9A" stroke-miterlimit="10"/>
<path d="M203.5 10.5L380.5 81.5L245.57 137L285.5 128.5V201.5L203.5 235.6C203.5 235.6 203.5 229.5 198.5 227.5V204.5C198.5 204.5 204.5 196.5 198.5 189.5V166.5C198.5 166.5 212.5 155.88 198.5 144.19V127.21C198.5 127.21 205.5 118.28 198.5 111.89V92.93C198.5 92.93 212.5 80.81 198.5 70.65V53.29C198.5 53.29 206.5 45.3 198.5 37.4V19.28C198.5 19.28 204.5 15.5 203.5 10.5Z" fill="url(#paint0_linear_1_533)"/>
</g>
<defs>
<linearGradient id="paint0_linear_1_533" x1="268" y1="-15" x2="138.5" y2="236" gradientUnits="userSpaceOnUse">
<stop stop-color="#042954"/>
<stop offset="0.703568" stop-color="#4B6C9A"/>
</linearGradient>
</defs>
</svg>
